<svg width="89" height="88" viewBox="0 0 89 88" fill="none" xmlns="http://www.w3.org/2000/svg">
<g filter="url(#filter0_i_1307_8257)">
<path d="M79.9563 15.6857L28.3961 0.901031C23.0568 -0.629971 17.4874 2.45721 15.9564 7.79645L1.17173 59.3567C-0.359277 64.6959 2.72791 70.2654 8.06715 71.7964L59.6274 86.581C64.9666 88.112 70.5361 85.0249 72.0671 79.6856L86.8517 28.1254C88.3827 22.7861 85.2956 17.2167 79.9563 15.6857Z" fill="url(#paint0_linear_1307_8257)"/>
<path d="M44.0176 55C46.935 55 49.7329 53.8411 51.7958 51.7782C53.8587 49.7153 55.0176 46.9174 55.0176 44C55.0176 41.0826 53.8587 38.2847 51.7958 36.2218C49.7329 34.1589 46.935 33 44.0176 33C41.1002 33 38.3023 34.1589 36.2394 36.2218C34.1765 38.2847 33.0176 41.0826 33.0176 44C33.0176 46.9174 34.1765 49.7153 36.2394 51.7782C38.3023 53.8411 41.1002 55 44.0176 55ZM44.0176 57.75C36.4235 57.75 30.2676 51.5941 30.2676 44C30.2676 36.4059 36.4235 30.25 44.0176 30.25C51.6117 30.25 57.7676 36.4059 57.7676 44C57.7676 51.5941 51.6117 57.75 44.0176 57.75ZM44.0176 49.5C45.4763 49.5 46.8752 48.9205 47.9067 47.8891C48.9381 46.8576 49.5176 45.4587 49.5176 44C49.5176 42.5413 48.9381 41.1424 47.9067 40.1109C46.8752 39.0795 45.4763 38.5 44.0176 38.5C42.5589 38.5 41.1599 39.0795 40.1285 40.1109C39.097 41.1424 38.5176 42.5413 38.5176 44C38.5176 45.4587 39.097 46.8576 40.1285 47.8891C41.1599 48.9205 42.5589 49.5 44.0176 49.5ZM44.0176 52.25C41.8295 52.25 39.7311 51.3808 38.1839 49.8336C36.6368 48.2865 35.7676 46.188 35.7676 44C35.7676 41.812 36.6368 39.7135 38.1839 38.1664C39.7311 36.6192 41.8295 35.75 44.0176 35.75C46.2056 35.75 48.304 36.6192 49.8512 38.1664C51.3984 39.7135 52.2676 41.812 52.2676 44C52.2676 46.188 51.3984 48.2865 49.8512 49.8336C48.304 51.3808 46.2056 52.25 44.0176 52.25ZM44.0176 46.75C43.2882 46.75 42.5888 46.4603 42.073 45.9445C41.5573 45.4288 41.2676 44.7293 41.2676 44C41.2676 43.2707 41.5573 42.5712 42.073 42.0555C42.5888 41.5397 43.2882 41.25 44.0176 41.25C44.7469 41.25 45.4464 41.5397 45.9621 42.0555C46.4778 42.5712 46.7676 43.2707 46.7676 44C46.7676 44.7293 46.4778 45.4288 45.9621 45.9445C45.4464 46.4603 44.7469 46.75 44.0176 46.75Z" fill="#6D60BB"/>
</g>
<defs>
<filter id="filter0_i_1307_8257" x="0.779297" y="0.509766" width="94.0077" height="91.4915" filterUnits="userSpaceOnUse" color-interpolation-filters="sRGB">
<feFlood flood-opacity="0" result="BackgroundImageFix"/>
<feBlend mode="normal" in="SourceGraphic" in2="BackgroundImageFix" result="shape"/>
<feColorMatrix in="SourceAlpha" type="matrix" values="0 0 0 0 0 0 0 0 0 0 0 0 0 0 0 0 0 0 127 0" result="hardAlpha"/>
<feOffset dx="7.54286" dy="5.02857"/>
<feGaussianBlur stdDeviation="4.60952"/>
<feComposite in2="hardAlpha" operator="arithmetic" k2="-1" k3="1"/>
<feColorMatrix type="matrix" values="0 0 0 0 1 0 0 0 0 1 0 0 0 0 1 0 0 0 0.06 0"/>
<feBlend mode="normal" in2="shape" result="effect1_innerShadow_1307_8257"/>
</filter>
<linearGradient id="paint0_linear_1307_8257" x1="4.00197" y1="36.536" x2="84.1239" y2="50.3524" gradientUnits="userSpaceOnUse">
<stop stop-color="#B2B3FE"/>
<stop offset="0.41" stop-color="#D8CCFF"/>
<stop offset="1" stop-color="#9692FF"/>
</linearGradient>
</defs>
</svg>
