<svg width="189" height="39" viewBox="0 0 189 39" fill="none" xmlns="http://www.w3.org/2000/svg">
<path d="M12.725 3H18.8L31.525 38H26.025L23.6 31.35H7.925L5.525 38H1.41561e-07L12.725 3ZM9.85 26.15H21.675L15.75 9.9L9.85 26.15ZM35.9121 38V0.499997H41.1121V38H35.9121ZM47.0938 38V0.499997H52.2938V38H47.0938ZM68.9336 38.65C66.6336 38.65 64.5336 38.0583 62.6336 36.875C60.7503 35.6917 59.2419 34.1083 58.1086 32.125C56.9919 30.125 56.4336 27.9167 56.4336 25.5C56.4336 23.6667 56.7586 21.9583 57.4086 20.375C58.0586 18.775 58.9503 17.375 60.0836 16.175C61.2336 14.9583 62.5669 14.0083 64.0836 13.325C65.6003 12.6417 67.2169 12.3 68.9336 12.3C70.8503 12.3 72.6086 12.7 74.2086 13.5C75.8086 14.2833 77.1753 15.375 78.3086 16.775C79.4419 18.1583 80.2753 19.7583 80.8086 21.575C81.3419 23.375 81.5003 25.2917 81.2836 27.325H62.0086C62.2253 28.475 62.6419 29.5167 63.2586 30.45C63.8919 31.3667 64.6919 32.0917 65.6586 32.625C66.6419 33.1583 67.7336 33.4333 68.9336 33.45C70.2003 33.45 71.3503 33.1333 72.3836 32.5C73.4336 31.8667 74.2919 30.9917 74.9586 29.875L80.2336 31.1C79.2336 33.3167 77.7253 35.1333 75.7086 36.55C73.6919 37.95 71.4336 38.65 68.9336 38.65ZM61.8336 23.35H76.0336C75.8669 22.15 75.4419 21.0667 74.7586 20.1C74.0919 19.1167 73.2503 18.3417 72.2336 17.775C71.2336 17.1917 70.1336 16.9 68.9336 16.9C67.7503 16.9 66.6503 17.1833 65.6336 17.75C64.6336 18.3167 63.8003 19.0917 63.1336 20.075C62.4836 21.0417 62.0503 22.1333 61.8336 23.35ZM85.4238 38V13H90.6238V15.65C91.4905 14.6167 92.5572 13.8 93.8238 13.2C95.0905 12.6 96.4572 12.3 97.9238 12.3C98.8572 12.3 99.7822 12.425 100.699 12.675L98.6238 17.925C97.9738 17.675 97.3238 17.55 96.6738 17.55C95.5738 17.55 94.5655 17.825 93.6488 18.375C92.7322 18.9083 91.9988 19.6333 91.4488 20.55C90.8988 21.4667 90.6238 22.4833 90.6238 23.6V38H85.4238ZM116.273 38H111.098L102.723 13H107.823L113.723 30.55L119.573 13H124.823L130.673 30.55L136.548 13H141.648L133.298 38H128.073L122.173 20.325L116.273 38ZM155.555 38.65C153.255 38.65 151.155 38.0583 149.255 36.875C147.371 35.6917 145.863 34.1083 144.73 32.125C143.613 30.125 143.055 27.9167 143.055 25.5C143.055 23.6667 143.38 21.9583 144.03 20.375C144.68 18.775 145.571 17.375 146.705 16.175C147.855 14.9583 149.188 14.0083 150.705 13.325C152.221 12.6417 153.838 12.3 155.555 12.3C157.471 12.3 159.23 12.7 160.83 13.5C162.43 14.2833 163.796 15.375 164.93 16.775C166.063 18.1583 166.896 19.7583 167.43 21.575C167.963 23.375 168.121 25.2917 167.905 27.325H148.63C148.846 28.475 149.263 29.5167 149.88 30.45C150.513 31.3667 151.313 32.0917 152.28 32.625C153.263 33.1583 154.355 33.4333 155.555 33.45C156.821 33.45 157.971 33.1333 159.005 32.5C160.055 31.8667 160.913 30.9917 161.58 29.875L166.855 31.1C165.855 33.3167 164.346 35.1333 162.33 36.55C160.313 37.95 158.055 38.65 155.555 38.65ZM148.455 23.35H162.655C162.488 22.15 162.063 21.0667 161.38 20.1C160.713 19.1167 159.871 18.3417 158.855 17.775C157.855 17.1917 156.755 16.9 155.555 16.9C154.371 16.9 153.271 17.1833 152.255 17.75C151.255 18.3167 150.421 19.0917 149.755 20.075C149.105 21.0417 148.671 22.1333 148.455 23.35ZM171.703 38V0.499997H176.903V38H171.703ZM182.885 38V0.499997H188.085V38H182.885Z" fill="black"/>
</svg>
