<svg width="26" height="25" viewBox="0 0 26 25" fill="none" xmlns="http://www.w3.org/2000/svg">
<path d="M25.649 19.0301C25.641 18.9789 25.6328 18.9281 25.6245 18.8775C25.4082 17.5712 24.9864 16.3075 24.375 15.1334C23.7765 13.9829 23.004 12.932 22.0848 12.0179C21.4137 11.3496 20.6696 10.7589 19.8667 10.2571L19.8806 10.2326L20.6379 8.92421L21.9088 6.72831C21.9508 6.65551 21.9841 6.58064 22.0087 6.50369C22.0588 6.3476 22.0751 6.18263 22.0566 6.01974C22.038 5.85685 21.985 5.69978 21.9011 5.559C21.8037 5.39514 21.6667 5.25847 21.5026 5.1616C21.3536 5.07292 21.1865 5.01906 21.0137 5.00403C20.8815 4.99302 20.7483 5.00461 20.62 5.03829C20.4742 5.07703 20.3374 5.14419 20.2175 5.23593C20.0976 5.32767 19.997 5.44219 19.9214 5.57293L19.3903 6.49086L18.6505 7.76882C18.3982 8.20526 18.1455 8.64095 17.893 9.07738L17.8103 9.22066C17.7723 9.20539 17.7342 9.19037 17.696 9.17559C16.2664 8.63049 14.7493 8.35205 13.2197 8.35403C13.1767 8.35391 13.1337 8.35415 13.0905 8.35476C11.7262 8.36727 10.3731 8.60244 9.08441 9.051C8.93925 9.10181 8.79538 9.15531 8.65278 9.2115C8.62717 9.16698 8.60082 9.12246 8.57557 9.07775L7.81827 7.76956L6.54737 5.57348C6.43829 5.38434 6.27754 5.23033 6.08404 5.12955C5.89054 5.02877 5.67232 4.98542 5.45505 5.00458C5.28214 5.01925 5.11483 5.07313 4.9658 5.16215C4.70748 5.31552 4.51979 5.56448 4.44324 5.85527C4.38666 6.06866 4.39237 6.29382 4.45971 6.50405C4.48478 6.58101 4.51753 6.65613 4.55943 6.72868C4.73703 7.03466 4.91408 7.34064 5.09058 7.64662C5.33759 8.07254 5.58435 8.49853 5.83087 8.92458L6.58781 10.233L6.59403 10.2439C5.78288 10.7488 5.03156 11.3443 4.3545 12.0188C3.85031 12.5207 3.38937 13.0644 2.97657 13.644C2.63801 14.1187 2.33316 14.6167 2.06429 15.1343C1.59991 16.026 1.24441 16.9705 1.00546 17.9473C0.930497 18.2552 0.866966 18.5659 0.814991 18.8786C0.806453 18.9294 0.798399 18.9803 0.790836 19.0312C0.762655 19.2143 0.738623 19.3981 0.71875 19.5823H25.7188C25.6986 19.3974 25.6748 19.2137 25.6472 19.0312L25.649 19.0301Z" fill="#34A853"/>
</svg>
