<svg width="296" height="402" viewBox="0 0 296 402" fill="none" xmlns="http://www.w3.org/2000/svg">
<mask id="mask0_1307_8019" style="mask-type:luminance" maskUnits="userSpaceOnUse" x="207" y="0" width="89" height="86">
<path d="M235.332 51.3971L207.242 45.0389L236.75 40.7301L213.915 6.69734L244.387 33.1081L253.742 0.238281L254.677 34.8544L276.89 26.6299L261.025 44.0848L295.95 66.3915L254.754 57.6905L252.933 76.1041L242.859 61.0325L215.648 85.0138L235.332 51.3971Z" fill="white"/>
</mask>
<g mask="url(#mask0_1307_8019)">
<path d="M295.95 0.238281H207.242V85.0138H295.95V0.238281Z" fill="url(#paint0_linear_1307_8019)"/>
</g>
<path d="M246.202 143.716C243.926 144.762 241.869 147.838 240.701 151.943C238.368 160.142 242.158 168.001 244.625 171.956C248.085 177.503 253.814 182.13 260.756 184.986C265.537 186.952 270.592 188.174 273.95 188.174C275.67 188.174 276.75 187.86 277.248 187.214L277.516 186.867L277.436 186.742C277.626 185.929 277.716 183.864 276.13 179.233C274.771 175.265 272.793 171.215 271.612 168.796L271.196 167.941C267.819 160.954 263.417 154.642 258.112 149.18C256.304 147.319 254.113 145.258 251.574 144.086C250.377 143.534 249.305 143.266 248.298 143.266C247.559 143.266 246.853 143.417 246.202 143.716Z" fill="white"/>
<path d="M87.92 111.126L87.3459 111.183L87.2842 111.737C87.2756 111.813 87.2715 111.945 87.3326 112.201L88.5552 112.14L88.5736 112.045L88.5745 111.988C88.5812 111.675 88.5175 111.467 88.3683 111.315L88.1808 111.125H87.92V111.126Z" fill="#00FF00"/>
<path d="M25.0321 129.826C25.2387 129.826 25.4464 129.791 25.6495 129.722C28.5234 128.744 36.3551 125.623 46.9926 117.777C56.8766 110.482 62.1075 104.376 64.3462 101.386C64.8235 100.748 64.8976 99.945 64.5432 99.2377C64.1868 98.5248 63.4846 98.082 62.7107 98.082C62.4756 98.082 62.239 98.1231 62.0085 98.2049C59.3656 99.1407 54.9613 101.029 48.9896 104.707L48.7037 104.929L48.692 105.348C48.6799 111.152 43.9476 115.875 38.1266 115.875C37.0365 115.873 35.9534 115.701 34.9085 115.363L34.5759 115.255L34.3108 115.484C28.5645 120.464 25.2732 124.407 23.524 126.839C23.1021 127.425 23.0457 128.155 23.3727 128.793C23.6997 129.43 24.3354 129.826 25.0321 129.826Z" fill="#797979"/>
<path d="M38.1776 110.76H38.1781C40.9367 110.76 43.733 108.906 43.7401 105.364C43.7715 90.3497 51.2787 78.229 67.365 67.2198C80.2844 58.3792 95.1698 53.7058 110.413 53.7058C113.449 53.7058 116.509 53.8972 119.512 54.274C125.774 55.06 131.849 56.662 137.567 59.0347C142.407 61.0429 147.004 63.5528 151.896 66.2236C154.822 67.8215 157.848 69.4732 160.92 71.0011C167.466 74.2553 177.425 78.5814 188.293 78.5814C188.505 78.5814 188.716 78.5799 188.928 78.5763C200.604 78.3889 211.069 72.8153 216.238 64.0301C216.995 62.7439 217.205 61.2404 216.831 59.7964C216.457 58.3523 215.543 57.1403 214.257 56.3837C213.396 55.8775 212.419 55.6099 211.433 55.6099C210.96 55.6099 210.486 55.6703 210.024 55.7907C208.58 56.1649 207.368 57.0789 206.61 58.365C203.451 63.7346 196.44 67.2838 188.748 67.4072C188.593 67.4097 188.436 67.4107 188.279 67.4107C181.806 67.4112 174.693 65.3731 165.893 60.9977C162.991 59.5547 160.199 58.0299 157.232 56.4096C152.32 53.7277 147.24 50.9543 141.848 48.7161C135.206 45.96 128.158 44.1001 120.901 43.1891C117.44 42.755 113.912 42.5352 110.415 42.5352C92.9083 42.5352 75.8405 47.8829 61.0561 58.0009C41.9258 71.092 32.6075 86.5765 32.5684 105.339C32.5653 106.848 33.0776 108.161 34.0495 109.136C35.0797 110.168 36.5842 110.76 38.1776 110.76Z" fill="white"/>
<path d="M239.673 244.363C242.712 245.871 245.871 246.636 249.063 246.636C251.81 246.636 254.622 246.069 257.421 244.949C262.033 243.104 265.385 239.674 267.385 234.754C270.697 226.605 269.323 216.909 268.218 214.423C267.61 213.056 264.946 212.852 263.412 212.852C260.09 212.852 255.912 213.728 251.951 215.257C232.783 222.657 227.728 230.212 228.365 232.523C229.19 235.519 233.244 241.172 239.673 244.363Z" fill="#0E112B"/>
<path d="M183.598 161.656C171.506 165.96 161.345 181.468 160.464 196.963C160.088 203.559 161.238 215.497 173.153 221.337C177.451 223.443 181.73 224.511 185.873 224.511H185.874C191.245 224.511 196.338 222.764 201.012 219.319C211.571 211.533 218.02 196.023 216.015 183.242C214.556 173.944 210.242 166.735 203.868 162.944C200.574 160.985 196.853 159.992 192.806 159.992C189.798 159.992 186.699 160.552 183.598 161.656Z" fill="white"/>
<path d="M276.876 196.605C276.454 195.209 275.139 194.241 273.655 194.241C268.064 194.241 261.697 191.963 258.396 190.61C250.266 187.265 243.502 181.767 239.363 175.127C234.162 166.793 232.518 157.912 234.733 150.13C236.44 144.129 239.593 139.81 243.614 137.961C244.874 137.384 246.233 137.049 247.648 136.968C248.454 136.924 249.143 136.44 249.453 135.696C249.751 134.964 249.608 134.145 249.074 133.549C246.325 130.496 243.266 128.951 240.002 128.951C239.511 128.951 239.015 128.982 238.513 129.05L238.482 129.056L238.445 129.062C234.647 130.037 232.252 132.866 229.719 135.858C229.142 136.54 228.547 137.235 227.913 137.943C227.814 138.061 227.671 138.129 227.516 138.129C227.429 138.129 227.299 138.104 227.175 137.999C227.045 137.887 226.977 137.707 226.995 137.533C227.225 135.759 227.721 133.977 228.497 132.202C229.441 130.055 228.807 127.61 226.958 126.257C203.73 109.297 176.252 100.336 147.495 100.336C131.416 100.336 115.722 103.116 100.847 108.608C99.4315 109.13 98.4698 110.433 98.3952 111.934C98.1591 116.794 94.647 121.59 91.7487 124.756C88.4971 128.231 85.0216 130.961 81.1556 133.084C80.6341 133.369 80.1066 133.642 79.5729 133.909C79.3866 133.996 79.1941 134.046 79.0022 134.046C78.5432 134.046 78.0837 133.767 77.8354 133.332C77.6927 133.09 77.5125 132.606 77.8415 132.041C79.1139 129.739 80.5163 127.486 81.869 125.302C82.9799 123.515 84.128 121.665 85.1952 119.81C85.2572 119.692 85.3257 119.575 85.3938 119.456C85.5491 119.177 85.7228 118.898 85.8964 118.606C86.7403 117.216 87.6898 115.634 87.7954 113.983C87.9259 112.016 86.2935 110.88 85.1023 110.049C83.0607 108.627 81.2114 107.306 79.443 106.009C78.5432 105.345 77.6435 104.669 76.7499 103.986C76.3589 103.688 75.8872 103.527 75.3972 103.527C74.6275 103.527 73.9202 103.918 73.5043 104.57C67.7332 113.68 55.9794 122.734 52.517 125.284C44.8901 130.919 37.0398 135.4 30.431 137.906C29.0844 138.421 27.781 138.85 26.5522 139.178C25.9318 139.352 25.4042 139.774 25.1123 140.345C24.9508 140.655 24.8701 141.003 24.864 141.344C24.8579 141.624 24.9071 141.909 25.0128 142.182C25.2052 142.704 25.4159 143.224 25.621 143.752C26.074 144.888 26.5395 146.061 26.8868 147.24C28.2273 151.814 29.9217 154.867 33.8065 154.867C34.6194 154.867 35.4942 154.73 36.4813 154.451C40.2295 153.377 43.8782 151.875 47.4096 150.417C48.9176 149.797 50.4753 149.151 52.0204 148.555L53.0695 148.146C55.8433 147.06 58.7166 145.93 61.7509 145.012C61.8875 144.975 62.0175 144.95 62.148 144.95C62.6385 144.95 63.1036 145.26 63.3336 145.744C63.4392 145.967 63.6377 146.545 63.1909 147.103C59.0081 152.372 53.4416 156.902 46.6591 160.557C42.6875 162.562 38.002 164.721 33.385 165.553C32.2929 165.751 31.3495 166.409 30.797 167.359C18.7705 187.937 12.416 211.475 12.416 235.416C12.416 288.301 43.5436 336.606 91.7122 358.475C109.274 366.449 128.04 370.496 147.495 370.496C166.95 370.496 185.716 366.449 203.278 358.475C245.774 339.182 275.009 299.31 281.296 253.872C282.139 247.809 282.574 241.641 282.574 235.416C282.573 222.229 280.655 209.172 276.876 196.605ZM228.081 221.453C232.822 217.152 240.3 212.951 249.707 209.321C254.411 207.509 259.202 206.503 263.192 206.503C267.002 206.503 271.948 207.416 273.878 211.759C275.604 215.644 277.161 227.019 273.127 236.942C270.502 243.396 265.867 248.106 259.717 250.564C256.192 251.972 252.617 252.686 249.086 252.686C244.898 252.686 240.802 251.706 236.905 249.776C229.154 245.928 223.724 238.941 222.371 234.026C221.763 231.816 221.695 227.249 228.081 221.453ZM222.142 182.239C224.519 197.387 217.177 215.067 204.691 224.27C198.933 228.515 192.615 230.668 185.901 230.668C180.768 230.668 175.562 229.389 170.417 226.87C159.365 221.452 153.476 210.406 154.264 196.568C155.294 178.472 167.004 160.935 181.513 155.771C185.298 154.425 189.103 153.736 192.82 153.736C197.976 153.736 202.761 155.027 207.037 157.571C215.024 162.325 220.392 171.081 222.142 182.239ZM160.278 141.586C167.005 137.503 174.718 135.343 182.593 135.343C186 135.343 189.357 135.759 192.566 136.572C196.382 137.614 199.684 139.184 202.383 141.251C202.526 141.363 202.619 141.524 202.644 141.704C202.669 141.884 202.625 142.064 202.513 142.206C202.383 142.38 202.184 142.474 201.967 142.474C201.917 142.474 201.861 142.467 201.805 142.455C197.766 141.561 194.669 141.034 191.783 140.742C189.816 140.488 187.818 140.357 185.832 140.357C170.498 140.357 156.827 147.761 149.268 160.141C145.762 165.677 143.305 171.981 141.97 178.882C141.883 179.329 141.523 179.484 141.219 179.484C140.896 179.484 140.505 179.311 140.45 178.82C139.091 164.801 147.059 149.833 160.278 141.586Z" fill="#FF0073"/>
<path d="M199.473 211.606C210.1 211.606 218.715 202.991 218.715 192.364C218.715 181.736 210.1 173.121 199.473 173.121C188.846 173.121 180.23 181.736 180.23 192.364C180.23 202.991 188.846 211.606 199.473 211.606Z" fill="black"/>
<path d="M270.729 162.816C267.85 157.464 264.341 152.533 261.842 147.004C255.805 149.741 251.604 155.816 251.604 162.875C251.604 172.498 259.404 180.298 269.026 180.298C271.871 180.298 274.552 179.612 276.923 178.402C275.019 173.137 273.395 167.772 270.729 162.816Z" fill="black"/>
<path d="M241.628 232.741C245.763 228.861 251.346 226.757 256.979 226.105C259.92 225.765 263.008 225.819 265.695 227.062C268.382 228.305 270.571 230.958 270.553 233.919C270.533 237.224 267.929 239.923 265.229 241.829C258.49 246.589 250 248.693 241.811 247.833C238.617 247.498 235.474 247.301 235.814 243.448C236.167 239.458 238.779 235.414 241.628 232.741Z" fill="#8397A4"/>
<g opacity="0.21">
<path d="M234.377 125.518C233.801 126.864 233.13 128.129 232.382 129.315C232.916 127.486 232.489 125.359 230.479 124.012C199.286 103.096 160.561 94.8106 123.466 99.9648C113.059 101.411 102.858 103.964 93.0018 107.604C87.4297 109.661 89.839 118.661 95.4766 116.58C128.814 104.271 166.027 104.988 199.073 117.941C208.467 121.624 217.406 126.434 225.781 132.05C227.416 133.146 229.014 133.013 230.252 132.227C224.308 139.244 215.061 142.448 205.468 140.933C192.746 138.924 180.414 132.616 167.677 138.202C164.758 139.482 167.282 143.76 170.183 142.489C183.898 136.474 198.591 147.099 212.623 146.301C223.898 145.659 234.223 138.4 238.664 128.023C239.907 125.118 235.632 122.586 234.377 125.518Z" fill="white"/>
<path d="M222.672 189.407C222.459 186.236 217.493 186.212 217.707 189.407C218.795 205.633 211.357 222.859 195.174 228.619C180.917 233.693 164.014 226.485 160.727 210.971C160.065 207.847 155.278 209.169 155.94 212.291C159.675 229.92 179.071 239.072 195.595 233.712C214.362 227.624 223.937 208.281 222.672 189.407Z" fill="white"/>
<path d="M276.596 191.652C263.181 194.401 249.529 187.29 244.327 174.567C243.134 171.649 238.329 172.926 239.54 175.886C245.814 191.233 261.612 199.78 277.915 196.439C281.043 195.798 279.719 191.011 276.596 191.652Z" fill="white"/>
</g>
<path d="M281.303 253.864C275.017 299.302 245.782 339.173 203.286 358.466C185.724 366.441 166.958 370.487 147.503 370.487C128.048 370.487 109.282 366.441 91.72 358.466C43.5514 336.598 12.4238 288.293 12.4238 235.408C12.4238 211.467 18.7783 187.928 30.8049 167.35C31.3573 166.401 32.3007 165.743 33.3928 165.544C38.0098 164.712 42.6953 162.553 46.6669 160.548C53.45 156.893 59.0164 152.363 63.1987 147.095C63.6456 146.536 63.447 145.959 63.3414 145.735C63.1119 145.251 62.6463 144.941 62.1558 144.941C62.0253 144.941 61.8954 144.966 61.7588 145.003C58.724 145.922 55.8511 147.051 53.0773 148.137L52.0283 148.547C50.4832 149.142 48.9254 149.788 47.4174 150.409C43.8865 151.867 40.2373 153.369 36.4891 154.442C35.5026 154.721 34.6272 154.858 33.8143 154.858C29.9295 154.858 28.2357 151.805 26.8947 147.231C26.5474 146.052 26.0818 144.879 25.6289 143.743C25.4242 143.216 25.213 142.694 25.0206 142.173C24.915 141.9 24.8652 141.615 24.8718 141.336C26.4915 142.695 28.4834 143.383 30.4443 142.651C45.7662 136.911 59.5054 127.373 71.0602 115.769C72.8972 113.919 75.7457 113.547 77.9671 114.906C80.4434 116.426 82.9319 117.928 85.4016 119.448C86.3572 120.038 87.3067 120.627 88.2561 121.217C85.8545 124.245 83.4904 127.658 82.8014 131.456C82.249 131.99 81.7031 132.529 81.1634 133.076C59.4312 154.957 46.0576 185.147 46.2252 218.46C46.5664 285.674 101.282 339.191 168.49 338.105C221.505 337.249 266.186 302.094 281.303 253.864Z" fill="#960044"/>
<path d="M56.0458 105.537C57.4747 104.373 58.9949 103.134 59.5783 101.386C60.1617 99.6373 59.2838 97.2777 57.4559 97.0401C56.8151 96.9568 56.1723 97.1407 55.5553 97.3331C53.0988 98.0973 47.7861 99.1813 46.6889 101.617C45.9912 103.166 45.8678 105.102 45.1971 106.72C44.4791 108.45 43.5682 110.102 42.4826 111.63C41.3229 113.261 39.7996 114.847 37.8204 115.145C35.1678 115.544 32.492 113.507 29.9151 114.252C27.9145 114.83 26.7502 116.865 25.8799 118.756C25.0853 120.485 20.1702 126.714 24.9431 126.256C28.8493 125.882 33.244 123.024 36.486 120.981C43.5352 116.543 49.6105 110.781 56.0458 105.537Z" fill="#595563"/>
<path d="M204.927 141.398C211.564 141.864 218.514 141.321 224.325 138.078C230.136 134.835 234.517 128.396 233.764 121.784C229.903 122.593 225.64 120.985 223.275 117.828C221.809 123.469 216.47 127.363 210.913 129.118C205.356 130.872 199.431 130.947 193.655 131.724C187.879 132.501 181.892 134.168 177.832 138.349C178.9 137.249 183.133 137.378 184.575 137.359C187.079 137.325 189.538 137.688 191.957 138.32C196.361 139.471 200.253 141.071 204.927 141.398Z" fill="#D70061"/>
<path d="M0.0078125 235.524C0.0078125 264.408 8.35623 292.38 24.1518 316.417C37.6021 336.886 55.7866 353.587 77.1456 365.186C46.0835 368.776 25.8111 374.684 25.8111 381.361C25.8111 392.306 80.2966 401.18 147.498 401.18C214.706 401.18 269.185 392.306 269.185 381.361C269.185 374.685 248.913 368.777 217.851 365.186C239.21 353.587 257.394 336.886 270.845 316.417C286.64 292.38 294.989 264.408 294.989 235.524C294.989 212.897 289.917 191.054 280.327 171.277C280.328 171.293 280.329 171.308 280.33 171.324C279.531 169.501 278.657 167.648 277.752 165.794L277.348 164.963C273.652 157.317 268.829 150.404 263.014 144.417C262.321 143.703 261.573 142.964 260.769 142.235C260.312 141.82 260.021 141.267 259.888 140.663C259.866 140.563 259.839 140.461 259.807 140.358C258.636 136.883 257.008 133.3 254.405 130.129C251.335 126.317 247.265 123.949 243.161 123.278C216.497 100.479 182.958 88.0344 147.498 88.0344C128.903 88.0344 110.874 91.4317 93.7916 98.1294C91.2036 99.1444 88.2866 98.7905 86.0266 97.1718C82.4018 94.5762 78.7023 92.0877 74.8856 89.7759C70.0264 84.868 60.5173 87.6784 52.2552 91.6947C55.5094 84.5502 61.5135 78.0891 70.5103 71.9321C84.905 62.0808 102.057 57.8147 118.805 59.9188C124.572 60.6428 130.16 62.1153 135.415 64.2966C139.985 66.193 144.461 68.6368 149.217 71.234C152.183 72.8537 155.252 74.5287 158.423 76.1058C165.653 79.7007 176.687 84.4446 189.005 84.2648C202.47 84.0485 214.629 77.558 220.842 67.2979C222.35 64.8074 222.948 61.8299 222.339 58.9825C221.677 55.8822 219.791 53.2708 217.077 51.675C214.224 49.9948 210.835 49.6602 207.661 50.7778C205.117 51.6734 203.091 53.5668 201.655 55.8497C199.419 59.4049 194.234 61.837 188.644 61.9264C183.017 62.0264 176.557 60.1721 168.37 56.101C165.57 54.7088 162.821 53.2073 159.91 51.6186C154.866 48.8641 149.65 46.0161 143.979 43.6622C136.875 40.7137 129.341 38.7253 121.588 37.7525C99.4104 34.971 76.7917 40.5624 57.8932 53.4957C37.1329 67.7041 27.0196 84.6918 26.9759 105.431V105.462C26.9749 107.581 26.0934 109.597 24.5463 111.045C16.5873 118.487 7.93174 128.905 11.8962 136.256C12.4096 138.257 12.9828 140.238 13.5546 142.219C15.1453 147.55 16.8722 152.84 18.695 158.097C19.4455 160.261 19.2317 162.641 18.1294 164.649C6.25008 186.299 0.0078125 210.625 0.0078125 235.524ZM257.673 149.606C262.93 155.02 267.294 161.277 270.643 168.204L271.059 169.061C272.235 171.468 274.203 175.497 275.548 179.427C277.568 185.324 276.76 186.828 276.763 186.828C275.639 188.282 268.662 187.557 260.998 184.406C254.175 181.599 248.549 177.059 245.158 171.622C242.745 167.754 239.036 160.076 241.304 152.108C242.423 148.174 244.353 145.246 246.467 144.275C247.039 144.012 247.649 143.881 248.305 143.881C249.216 143.881 250.215 144.135 251.32 144.644C253.766 145.772 255.904 147.785 257.673 149.606ZM87.9454 111.966C87.9423 111.992 87.9347 112.019 87.9312 112.045C87.9048 111.934 87.891 111.84 87.8961 111.796C87.9063 111.669 87.9494 111.765 87.9454 111.966ZM61.3982 58.6164C76.0884 48.563 93.1701 43.2595 110.406 43.2595C113.875 43.2595 117.352 43.4748 120.815 43.9089C128.016 44.8132 135.009 46.6584 141.6 49.3936C146.966 51.6206 152.034 54.3884 156.936 57.0647C159.9 58.6834 162.7 60.2122 165.606 61.6573C174.717 66.1874 182.064 68.2337 188.746 68.1311C196.649 68.0047 203.866 64.3352 207.134 58.7834C207.807 57.64 208.884 56.8276 210.168 56.495C211.451 56.1624 212.786 56.3498 213.931 57.0226C215.074 57.6948 215.886 58.7723 216.219 60.0559C216.551 61.3395 216.364 62.6759 215.691 63.8188C210.631 72.4185 200.368 77.8753 188.908 78.0591C177.961 78.2307 167.836 73.8545 161.187 70.5485C158.122 69.0247 155.107 67.3786 152.175 65.7772C147.286 63.1085 142.67 60.5875 137.795 58.5641C132.026 56.1701 125.897 54.5539 119.58 53.7613C101.326 51.4688 82.6546 56.102 67.0063 66.8105C50.7365 77.9454 43.1436 90.2278 43.1117 105.464C43.099 111.881 33.1694 111.792 33.1826 105.443C33.2197 86.9006 42.4496 71.5833 61.3982 58.6164ZM24.0315 127.329C26.0833 124.476 29.4984 120.606 34.7206 116.081C35.7955 116.428 36.9394 116.621 38.1286 116.623H38.1464C44.2927 116.623 49.3031 111.622 49.3158 105.476C49.3158 105.438 49.3178 105.401 49.3178 105.363C54.7035 102.046 59.0402 100.043 62.2187 98.918C63.5602 98.4432 64.7052 100.003 63.8527 101.142C60.7681 105.262 55.1453 111.118 46.6273 117.405C37.7747 123.934 30.29 127.615 25.4527 129.261C24.293 129.657 23.316 128.323 24.0315 127.329ZM31.3329 167.78C31.7975 166.985 32.5906 166.438 33.4969 166.274C38.3667 165.396 43.297 163.058 46.9431 161.218C53.3717 157.753 59.1266 153.334 63.678 147.6C64.8464 146.139 63.3607 143.964 61.5698 144.53C58.1364 145.568 54.9518 146.854 51.7957 148.086C46.6527 150.081 41.6295 152.444 36.3124 153.959C31.0018 155.473 29.0455 152.485 27.4846 147.171C26.9733 145.43 26.2336 143.767 25.5943 142.069C25.2475 141.148 25.773 140.146 26.721 139.888C27.964 139.55 29.274 139.12 30.653 138.597C37.3167 136.067 45.2137 131.557 52.8909 125.894C56.2801 123.392 68.1828 114.239 74.0326 105.011C74.5423 104.207 75.6208 104.011 76.3773 104.589C77.273 105.273 78.1737 105.95 79.0816 106.617C80.9516 107.992 82.843 109.339 84.7481 110.665C85.9235 111.484 87.2838 112.454 87.1812 114.052C87.0553 116.016 85.563 117.944 84.6521 119.619C82.3195 123.69 79.6325 127.627 77.2999 131.85C76.3525 133.474 78.1529 135.413 79.8534 134.572C84.5424 132.261 88.6141 129.122 92.2069 125.289C95.2783 121.934 98.7752 117.011 99.0194 112.076C99.0813 110.828 99.8881 109.73 101.061 109.298C115.877 103.832 131.455 101.066 147.497 101.066C177.042 101.066 204.385 110.652 226.597 126.867C228.226 128.056 228.743 130.218 227.932 132.064C227.927 132.075 227.923 132.086 227.918 132.097C227.141 133.874 226.622 135.696 226.384 137.565C226.34 137.932 226.473 138.32 226.775 138.579C227.256 138.992 227.984 138.934 228.393 138.449C231.708 134.759 234.159 130.913 238.603 129.774C242.72 129.21 245.996 131.167 248.618 134.075C249.431 134.976 248.828 136.393 247.616 136.459C245.896 136.554 244.462 136.999 243.357 137.507C239.171 139.43 235.898 143.891 234.141 150.068C231.877 158.023 233.545 167.077 238.838 175.562C243.048 182.312 249.912 187.898 258.164 191.292C261.586 192.699 267.987 194.969 273.657 194.969H273.677C274.872 194.968 275.937 195.744 276.282 196.889C279.965 209.13 281.956 222.097 281.956 235.524C281.956 288.165 250.973 336.246 203.024 358.017C185.544 365.956 166.863 369.982 147.497 369.982C128.132 369.982 109.45 365.956 91.9693 358.017C44.0215 336.247 13.0397 288.166 13.0397 235.524C13.0397 211.612 19.3541 188.284 31.3329 167.78Z" fill="#2A0C1A"/>
<path d="M181.293 155.264C166.568 160.506 154.678 178.282 153.634 196.613C152.831 210.713 158.846 221.973 170.135 227.506C175.399 230.086 180.714 231.369 185.893 231.369C192.648 231.369 199.172 229.186 205.05 224.852C217.713 215.513 225.155 197.585 222.745 182.222C220.965 170.88 215.496 161.964 207.344 157.116C199.798 152.628 190.548 151.969 181.293 155.264ZM215.388 183.376C217.361 195.945 211.016 211.199 200.63 218.857C194.943 223.051 185.606 226.793 173.413 220.818C161.819 215.136 160.703 203.478 161.07 197.036C161.938 181.773 171.919 166.506 183.792 162.279C186.848 161.191 189.881 160.651 192.793 160.651C196.673 160.651 200.336 161.611 203.538 163.516C209.75 167.211 213.959 174.264 215.388 183.376Z" fill="#0E112B"/>
<path d="M142.584 179.037C143.864 172.412 146.219 166.155 149.795 160.513C158.539 146.189 175.295 139.26 191.707 141.397C194.999 141.726 198.274 142.344 201.675 143.097C202.159 143.212 202.688 143.042 203.009 142.621C203.446 142.049 203.336 141.232 202.765 140.795C199.815 138.539 196.343 136.996 192.731 136.012C181.744 133.214 169.696 135.179 159.961 141.09C147.27 149.011 138.371 163.81 139.835 178.919C140.01 180.49 142.281 180.572 142.584 179.037Z" fill="#0E112B"/>
<path d="M221.789 234.277C223.179 239.324 228.728 246.489 236.643 250.418C239.769 251.97 244.024 253.396 249.1 253.396C252.401 253.396 256.051 252.792 259.962 251.228C266.272 248.704 271.027 243.875 273.714 237.266C277.818 227.169 276.226 215.562 274.461 211.592C271.211 204.283 259.584 204.938 249.498 208.83C240.023 212.488 232.475 216.725 227.674 221.083C221.048 227.099 221.143 231.932 221.789 234.277ZM252.18 215.777H252.181C260.098 212.721 266.92 212.962 267.656 214.616C268.73 217.033 270.057 226.485 266.815 234.462C264.881 239.219 261.645 242.534 257.196 244.314C251.279 246.68 245.477 246.489 239.954 243.748C233.696 240.642 229.762 235.183 228.968 232.3C228.465 230.474 233.033 223.169 252.18 215.777Z" fill="#0E112B"/>
<defs>
<linearGradient id="paint0_linear_1307_8019" x1="216.161" y1="40.4714" x2="318.818" y2="46.7134" gradientUnits="userSpaceOnUse">
<stop stop-color="#FF2966"/>
<stop offset="1" stop-color="#FFFF00"/>
</linearGradient>
</defs>
</svg>
