<svg width="81" height="80" viewBox="0 0 81 80" fill="none" xmlns="http://www.w3.org/2000/svg">
<path d="M43.2181 23.3333C41.5612 23.3333 40.2181 21.9902 40.2181 20.3333V13C40.2181 11.3431 38.8749 10 37.2181 10H9.88476C8.22791 10 6.88477 11.3431 6.88477 13V67C6.88477 68.6569 8.22791 70 9.88477 70H70.5514C72.2083 70 73.5514 68.6569 73.5514 67V26.3333C73.5514 24.6765 72.2083 23.3333 70.5514 23.3333H43.2181ZM20.2181 60.3333C20.2181 61.9902 18.8749 63.3333 17.2181 63.3333H16.5514C14.8946 63.3333 13.5514 61.9902 13.5514 60.3333V59.6667C13.5514 58.0098 14.8946 56.6667 16.5514 56.6667H17.2181C18.875 56.6667 20.2181 58.0098 20.2181 59.6667V60.3333ZM20.2181 47C20.2181 48.6569 18.8749 50 17.2181 50H16.5514C14.8946 50 13.5514 48.6569 13.5514 47V46.3333C13.5514 44.6765 14.8946 43.3333 16.5514 43.3333H17.2181C18.875 43.3333 20.2181 44.6765 20.2181 46.3333V47ZM20.2181 33.6667C20.2181 35.3235 18.8749 36.6667 17.2181 36.6667H16.5514C14.8946 36.6667 13.5514 35.3235 13.5514 33.6667V33C13.5514 31.3431 14.8946 30 16.5514 30H17.2181C18.875 30 20.2181 31.3431 20.2181 33V33.6667ZM20.2181 20.3333C20.2181 21.9902 18.8749 23.3333 17.2181 23.3333H16.5514C14.8946 23.3333 13.5514 21.9902 13.5514 20.3333V19.6667C13.5514 18.0098 14.8946 16.6667 16.5514 16.6667H17.2181C18.875 16.6667 20.2181 18.0098 20.2181 19.6667V20.3333ZM33.5514 60.3333C33.5514 61.9902 32.2083 63.3333 30.5514 63.3333H29.8848C28.2279 63.3333 26.8848 61.9902 26.8848 60.3333V59.6667C26.8848 58.0098 28.2279 56.6667 29.8848 56.6667H30.5514C32.2083 56.6667 33.5514 58.0098 33.5514 59.6667V60.3333ZM33.5514 47C33.5514 48.6569 32.2083 50 30.5514 50H29.8848C28.2279 50 26.8848 48.6569 26.8848 47V46.3333C26.8848 44.6765 28.2279 43.3333 29.8848 43.3333H30.5514C32.2083 43.3333 33.5514 44.6765 33.5514 46.3333V47ZM33.5514 33.6667C33.5514 35.3235 32.2083 36.6667 30.5514 36.6667H29.8848C28.2279 36.6667 26.8848 35.3235 26.8848 33.6667V33C26.8848 31.3431 28.2279 30 29.8848 30H30.5514C32.2083 30 33.5514 31.3431 33.5514 33V33.6667ZM33.5514 20.3333C33.5514 21.9902 32.2083 23.3333 30.5514 23.3333H29.8848C28.2279 23.3333 26.8848 21.9902 26.8848 20.3333V19.6667C26.8848 18.0098 28.2279 16.6667 29.8848 16.6667H30.5514C32.2083 16.6667 33.5514 18.0098 33.5514 19.6667V20.3333ZM66.8848 60.3333C66.8848 61.9902 65.5416 63.3333 63.8848 63.3333H43.2181C41.5612 63.3333 40.2181 61.9902 40.2181 60.3333V59.6667C40.2181 58.0098 41.5612 56.6667 43.2181 56.6667H43.8848C45.5416 56.6667 46.8848 55.3235 46.8848 53.6667V53C46.8848 51.3431 45.5416 50 43.8848 50H43.2181C41.5612 50 40.2181 48.6569 40.2181 47V46.3333C40.2181 44.6765 41.5612 43.3333 43.2181 43.3333H43.8848C45.5416 43.3333 46.8848 41.9902 46.8848 40.3333V39.6667C46.8848 38.0098 45.5416 36.6667 43.8848 36.6667H43.2181C41.5612 36.6667 40.2181 35.3235 40.2181 33.6667V33C40.2181 31.3431 41.5612 30 43.2181 30H63.8848C65.5416 30 66.8848 31.3431 66.8848 33V60.3333ZM60.2181 39.6667C60.2181 38.0098 58.8749 36.6667 57.2181 36.6667H56.5514C54.8946 36.6667 53.5514 38.0098 53.5514 39.6667V40.3333C53.5514 41.9902 54.8946 43.3333 56.5514 43.3333H57.2181C58.8749 43.3333 60.2181 41.9902 60.2181 40.3333V39.6667ZM60.2181 53C60.2181 51.3431 58.8749 50 57.2181 50H56.5514C54.8946 50 53.5514 51.3431 53.5514 53V53.6667C53.5514 55.3235 54.8946 56.6667 56.5514 56.6667H57.2181C58.8749 56.6667 60.2181 55.3235 60.2181 53.6667V53Z" fill="#FF0073"/>
</svg>
