<svg width="81" height="80" viewBox="0 0 81 80" fill="none" xmlns="http://www.w3.org/2000/svg">
<path d="M30.2188 72.5H50.2188M45.2188 25L37.7188 32.5L42.7188 37.5L35.2188 45M65.2188 32.5V37.5C65.2188 41.5 61.8838 45.835 60.2188 47.5L52.7188 55L50.2188 62.5H30.2188L27.7188 55L20.2188 47.5C18.5537 45.835 15.2188 41.5 15.2188 37.5V32.5C15.2188 25.8696 17.8527 19.5107 22.5411 14.8223C27.2295 10.1339 33.5883 7.5 40.2188 7.5C46.8492 7.5 53.208 10.1339 57.8964 14.8223C62.5848 19.5107 65.2188 25.8696 65.2188 32.5Z" stroke="#FF0073" stroke-width="5"/>
</svg>
