<svg width="88" height="88" viewBox="0 0 88 88" fill="none" xmlns="http://www.w3.org/2000/svg">
<g filter="url(#filter0_i_1307_8197)">
<path d="M62.5846 2.09295L10.1186 13.2449C4.68559 14.3998 1.21742 19.7403 2.37225 25.1733L13.5242 77.6393C14.6791 83.0723 20.0196 86.5405 25.4526 85.3857L77.9186 74.2337C83.3516 73.0788 86.8198 67.7383 85.665 62.3053L74.513 9.83933C73.3581 4.4063 68.0176 0.938126 62.5846 2.09295Z" fill="url(#paint0_linear_1307_8197)"/>
<g clip-path="url(#clip0_1307_8197)">
<path d="M38.7812 42.3633C40.6046 42.3633 42.3533 41.639 43.6426 40.3496C44.9319 39.0603 45.6562 37.3116 45.6562 35.4883C45.6562 33.6649 44.9319 31.9162 43.6426 30.6269C42.3533 29.3376 40.6046 28.6133 38.7812 28.6133C36.9579 28.6133 35.2092 29.3376 33.9199 30.6269C32.6306 31.9162 31.9062 33.6649 31.9062 35.4883C31.9062 37.3116 32.6306 39.0603 33.9199 40.3496C35.2092 41.639 36.9579 42.3633 38.7812 42.3633ZM38.7812 42.3633C41.5491 42.3633 43.9677 43.4083 45.6879 45.1449C46.7077 46.1789 47.4707 47.4378 47.9154 48.8203M38.7812 42.3633C33.2812 42.3633 29.1562 46.4883 29.1562 51.9883V58.8633H42.9062M44.2812 53.1213L50.0425 57.4883L59.4062 45.1133" stroke="#004F19" stroke-width="2"/>
</g>
</g>
<defs>
<filter id="filter0_i_1307_8197" x="2.15039" y="1.87109" width="91.2792" height="88.7649" filterUnits="userSpaceOnUse" color-interpolation-filters="sRGB">
<feFlood flood-opacity="0" result="BackgroundImageFix"/>
<feBlend mode="normal" in="SourceGraphic" in2="BackgroundImageFix" result="shape"/>
<feColorMatrix in="SourceAlpha" type="matrix" values="0 0 0 0 0 0 0 0 0 0 0 0 0 0 0 0 0 0 127 0" result="hardAlpha"/>
<feOffset dx="7.54286" dy="5.02857"/>
<feGaussianBlur stdDeviation="4.60952"/>
<feComposite in2="hardAlpha" operator="arithmetic" k2="-1" k3="1"/>
<feColorMatrix type="matrix" values="0 0 0 0 1 0 0 0 0 1 0 0 0 0 1 0 0 0 0.06 0"/>
<feBlend mode="normal" in2="shape" result="effect1_innerShadow_1307_8197"/>
</filter>
<linearGradient id="paint0_linear_1307_8197" x1="6.33737" y1="56.9567" x2="82.6808" y2="33.7488" gradientUnits="userSpaceOnUse">
<stop stop-color="#A1F4E4"/>
<stop offset="1" stop-color="#C8FFBB"/>
</linearGradient>
<clipPath id="clip0_1307_8197">
<rect width="33" height="33" fill="white" transform="translate(27.7812 27.2383)"/>
</clipPath>
</defs>
</svg>
