<svg width="14" height="14" viewBox="0 0 14 14" fill="none" xmlns="http://www.w3.org/2000/svg">
<path fill-rule="evenodd" clip-rule="evenodd" d="M13.4755 4.34902V4.3518C13.8234 5.18957 14.0003 6.07981 14.0003 6.9987C14.0003 10.8344 10.8779 13.9569 7.04215 13.9569C3.20643 13.9569 0.0839844 10.8344 0.0839844 6.9987C0.0839844 3.16296 3.20643 0.0405273 7.04215 0.0405273C7.76696 0.0405273 8.48312 0.153453 9.16497 0.374121C9.16778 0.374121 9.16778 0.376901 9.16778 0.376901H9.1765C9.18624 0.38023 9.19414 0.386167 9.2023 0.392276L9.20999 0.397939L9.21329 0.400221L9.21699 0.402589L9.21898 0.403756L9.22303 0.405935C9.23772 0.414686 9.25522 0.417466 9.26957 0.428997C9.26957 0.428997 9.26957 0.429941 9.27012 0.43073C9.27046 0.431296 9.27115 0.431777 9.27231 0.431777C9.28796 0.447718 9.29922 0.463676 9.31199 0.481745L9.31569 0.487047C9.31741 0.489295 9.31919 0.491423 9.32105 0.493516L9.3251 0.498012C9.32873 0.50201 9.33237 0.506008 9.33553 0.510452C9.338 0.51385 9.3402 0.517522 9.34191 0.52164C9.34658 0.529791 9.3496 0.538679 9.35186 0.547962L9.35303 0.553145L9.35434 0.559476L9.35626 0.570939L9.35893 0.578266L9.36182 0.585833L9.36202 0.586399C9.36683 0.598926 9.37177 0.611881 9.37376 0.626209C9.37376 0.630945 9.37314 0.635767 9.37252 0.64076V0.643059C9.37177 0.649563 9.37095 0.656444 9.37095 0.663977C9.37095 0.690213 9.3682 0.713275 9.36223 0.739529V0.742309C9.35887 0.752072 9.35296 0.760961 9.34727 0.769403C9.3428 0.776095 9.33855 0.782496 9.33594 0.788828C9.32722 0.80633 9.32125 0.823815 9.30972 0.838126C8.93832 1.29062 8.73557 1.85602 8.73557 2.43573C8.73557 3.82417 9.86596 4.95499 11.2548 4.95499C11.9101 4.95499 12.5304 4.7029 13.0031 4.24485C13.007 4.24161 13.0109 4.23884 13.0148 4.23636C13.0205 4.23279 13.0261 4.22978 13.0317 4.2268C13.0367 4.22419 13.0416 4.22158 13.0465 4.21861C13.064 4.20708 13.0755 4.19555 13.093 4.1868H13.0989C13.1192 4.17844 13.1427 4.17527 13.1658 4.17249C13.18 4.17249 13.1948 4.16374 13.2091 4.16652C13.2266 4.16652 13.2409 4.17249 13.2584 4.17527C13.2787 4.17805 13.2989 4.18083 13.3164 4.1868C13.324 4.19045 13.3304 4.19548 13.3371 4.20097L13.3408 4.20403L13.3483 4.20986C13.3713 4.22139 13.3916 4.23292 13.4118 4.25043C13.4118 4.25209 13.4118 4.25276 13.4124 4.25303C13.4129 4.25321 13.4135 4.25321 13.4146 4.25321C13.4262 4.26752 13.4349 4.285 13.4437 4.30251C13.4524 4.31682 13.4667 4.32557 13.4727 4.34305C13.4727 4.3448 13.4727 4.34559 13.4732 4.34642L13.474 4.34751L13.4755 4.34902ZM2.11338 7.86826C2.11338 8.50921 2.63269 9.02809 3.27321 9.02809C3.91374 9.02809 4.43305 8.50921 4.43305 7.86826C4.43305 7.22733 3.91374 6.70845 3.27321 6.70845C2.63228 6.70845 2.11338 7.22772 2.11338 7.86826ZM5.01234 2.93951C4.53401 2.93951 4.14278 3.33115 4.14278 3.80947C4.14278 4.2878 4.53442 4.67944 5.01234 4.67905C5.49109 4.67905 5.88232 4.2878 5.88232 3.80947C5.88232 3.33074 5.49068 2.93951 5.01234 2.93951ZM6.7523 10.7676C6.7523 11.2464 7.14353 11.6376 7.62186 11.6376C8.1002 11.6376 8.49184 11.246 8.49184 10.7676C8.49184 10.2893 8.1002 9.89807 7.62186 9.89807C7.14353 9.89807 6.7523 10.2893 6.7523 10.7676ZM7.04215 6.85356C7.04215 7.49451 7.56146 8.01339 8.20199 8.01339C8.84251 8.01339 9.36141 7.49451 9.36182 6.85356C9.36182 6.21263 8.84251 5.69375 8.20199 5.69375C7.56105 5.69375 7.04215 6.21302 7.04215 6.85356Z" fill="white"/>
</svg>
