<svg width="69" height="70" viewBox="0 0 69 70" fill="none" xmlns="http://www.w3.org/2000/svg">
<path d="M43.6548 0.831543C30.0302 0.831543 18.9824 11.8793 18.9824 25.5111C18.9824 39.1357 30.0302 50.1835 43.6548 50.1835C57.2866 50.1835 68.3344 39.1357 68.3344 25.5111C68.3344 11.8793 57.2866 0.831543 43.6548 0.831543Z" fill="#D28147"/>
<path d="M24.6795 19.8164C11.0478 19.8164 0 30.8642 0 44.4888C0 58.1206 11.0478 69.1683 24.6795 69.1683C38.3042 69.1683 49.3519 58.1206 49.3519 44.4888C49.3519 30.8642 38.3042 19.8164 24.6795 19.8164Z" fill="#F6B059"/>
<path d="M21.8335 38.7933C19.2068 38.7933 17.0855 40.9217 17.0855 43.5412C17.0855 46.1608 19.2068 48.2892 21.8335 48.2892C24.4531 48.2892 26.5744 46.1608 26.5744 43.5412C26.5744 40.9217 24.4531 38.7933 21.8335 38.7933ZM25.6276 27.4038C24.0544 27.4038 22.7802 28.678 22.7802 30.2512C22.7802 31.8243 24.0544 33.0985 25.6276 33.0985C27.2008 33.0985 28.475 31.8243 28.475 30.2512C28.475 28.678 27.2008 27.4038 25.6276 27.4038ZM32.2691 50.1827C30.1763 50.1827 28.475 51.884 28.475 53.9839C28.475 56.0768 30.1763 57.7781 32.2691 57.7781C34.369 57.7781 36.0703 56.0768 36.0703 53.9839C36.0703 51.884 34.369 50.1827 32.2691 50.1827ZM10.444 44.488C8.87088 44.488 7.59668 45.7622 7.59668 47.3354C7.59668 48.9085 8.87088 50.1827 10.444 50.1827C12.0172 50.1827 13.2914 48.9085 13.2914 47.3354C13.2914 45.7622 12.0172 44.488 10.444 44.488ZM37.0171 38.7933C35.4439 38.7933 34.1697 40.0675 34.1697 41.6406C34.1697 43.2138 35.4439 44.488 37.0171 44.488C38.5902 44.488 39.8644 43.2138 39.8644 41.6406C39.8644 40.0675 38.5902 38.7933 37.0171 38.7933ZM18.9861 55.8774C17.9326 55.8774 17.0855 56.7317 17.0855 57.7781C17.0855 58.8245 17.9326 59.6787 18.9861 59.6787C20.0325 59.6787 20.8796 58.8245 20.8796 57.7781C20.8796 56.7317 20.0325 55.8774 18.9861 55.8774Z" fill="#6D420D"/>
<path d="M37.9631 8.42796C35.8702 8.42796 34.1689 10.1221 34.1689 12.2221C34.1689 14.322 35.8702 16.0162 37.9631 16.0162C40.063 16.0162 41.7643 14.322 41.7643 12.2221C41.7643 10.1221 40.063 8.42796 37.9631 8.42796ZM48.4058 17.9168C46.8326 17.9168 45.5584 19.191 45.5584 20.7642C45.5584 22.3373 46.8326 23.6115 48.4058 23.6115C49.9789 23.6115 51.2531 22.3373 51.2531 20.7642C51.2531 19.191 49.9789 17.9168 48.4058 17.9168ZM50.2993 6.52734C48.7261 6.52734 47.4519 7.80154 47.4519 9.37471C47.4519 10.9479 48.7261 12.2221 50.2993 12.2221C51.8724 12.2221 53.1466 10.9479 53.1466 9.37471C53.1466 7.80154 51.8724 6.52734 50.2993 6.52734ZM56.9479 27.4056C55.9014 27.4056 55.0472 28.2598 55.0472 29.3063C55.0472 30.3527 55.9014 31.2069 56.9479 31.2069C57.9943 31.2069 58.8485 30.3527 58.8485 29.3063C58.8485 28.2598 57.9943 27.4056 56.9479 27.4056Z" fill="#7A441D"/>
</svg>
