<svg width="20" height="20" viewBox="0 0 20 20" fill="none" xmlns="http://www.w3.org/2000/svg">
<g clip-path="url(#clip0_5327_9528)">
<path d="M4.16675 12.4993C3.39018 12.4993 3.00189 12.4993 2.69561 12.3725C2.28723 12.2033 1.96277 11.8789 1.79362 11.4705C1.66675 11.1642 1.66675 10.7759 1.66675 9.99935V4.33268C1.66675 3.39926 1.66675 2.93255 1.8484 2.57603C2.00819 2.26243 2.26316 2.00746 2.57676 1.84767C2.93328 1.66602 3.39999 1.66602 4.33341 1.66602H10.0001C10.7767 1.66602 11.1649 1.66602 11.4712 1.79288C11.8796 1.96204 12.2041 2.2865 12.3732 2.69488C12.5001 3.00116 12.5001 3.38945 12.5001 4.16602M10.1667 18.3327H15.6667C16.6002 18.3327 17.0669 18.3327 17.4234 18.151C17.737 17.9912 17.992 17.7363 18.1518 17.4227C18.3334 17.0661 18.3334 16.5994 18.3334 15.666V10.166C18.3334 9.23259 18.3334 8.76588 18.1518 8.40937C17.992 8.09576 17.737 7.84079 17.4234 7.68101C17.0669 7.49935 16.6002 7.49935 15.6667 7.49935H10.1667C9.23333 7.49935 8.76662 7.49935 8.4101 7.68101C8.09649 7.84079 7.84153 8.09576 7.68174 8.40937C7.50008 8.76588 7.50008 9.2326 7.50008 10.166V15.666C7.50008 16.5994 7.50008 17.0661 7.68174 17.4227C7.84153 17.7363 8.09649 17.9912 8.4101 18.151C8.76662 18.3327 9.23333 18.3327 10.1667 18.3327Z" stroke="#FF0073" stroke-width="1.66667" stroke-linecap="round" stroke-linejoin="round"/>
</g>
<defs>
<clipPath id="clip0_5327_9528">
<rect width="20" height="20" fill="white"/>
</clipPath>
</defs>
</svg>
