<svg width="25" height="25" viewBox="0 0 25 25" fill="none" xmlns="http://www.w3.org/2000/svg">
<path d="M18.4834 0.58252H5.7334C2.6268 0.58252 0.108398 3.10092 0.108398 6.20752V18.9575C0.108398 22.0641 2.6268 24.5825 5.7334 24.5825H18.4834C21.59 24.5825 24.1084 22.0641 24.1084 18.9575V6.20752C24.1084 3.10092 21.59 0.58252 18.4834 0.58252Z" fill="#E14E1D"/>
<path d="M4.6084 4.14502L5.41559 13.2006H15.7946L15.4464 17.0847L12.1046 17.9882L8.76902 17.086L8.54599 14.5921H5.54027L5.97012 19.3996L12.1039 21.1033L18.2455 19.3996L19.0689 10.2064H8.1544L7.88037 7.13986H19.3402L19.6084 4.14502H4.6084Z" fill="white"/>
<path d="M12.1084 4.14502H4.6084L5.41559 13.2006H12.1084V10.2064H8.1544L7.88037 7.13986H12.1084V4.14502ZM12.1084 17.9869L12.1046 17.9882L8.76902 17.086L8.54599 14.5921H5.54027L5.97012 19.3996L12.1039 21.1033L12.1085 21.102L12.1084 17.9869Z" fill="#EBEBEB"/>
</svg>
