<svg width="25" height="25" viewBox="0 0 25 25" fill="none" xmlns="http://www.w3.org/2000/svg">
<path d="M9.27396 16.2979H15.1635C16.79 16.2979 18.1084 17.6393 18.1084 19.2941C18.1084 20.9488 16.79 22.2903 15.1635 22.2903H9.27396C7.64753 22.2903 6.3291 20.9488 6.3291 19.2941C6.3291 17.6393 7.64753 16.2979 9.27396 16.2979Z" fill="#1AD1A5"/>
<path d="M12.2187 14.859C15.4714 14.859 18.1083 12.1762 18.1083 8.86678C18.1083 5.55734 15.4714 2.87451 12.2187 2.87451C8.96596 2.87451 6.3291 5.55734 6.3291 8.86678C6.3291 12.1762 8.96596 14.859 12.2187 14.859Z" fill="white"/>
<path d="M12.2191 11.5517C13.6763 11.5517 14.8577 10.3498 14.8577 8.86717C14.8577 7.38453 13.6763 6.18262 12.2191 6.18262C10.7619 6.18262 9.58057 7.38453 9.58057 8.86717C9.58057 10.3498 10.7619 11.5517 12.2191 11.5517Z" fill="#FF9903"/>
</svg>
