<svg width="25" height="24" viewBox="0 0 25 24" fill="none" xmlns="http://www.w3.org/2000/svg">
<g clip-path="url(#clip0_3886_11085)">
<path d="M9.25 24.1875C11.4812 24.1875 13.2812 22.3875 13.2812 20.1562V16.125H9.25C7.01875 16.125 5.21875 17.925 5.21875 20.1562C5.21875 22.3875 7.01875 24.1875 9.25 24.1875Z" fill="#0ACF83"/>
<path d="M5.21875 12.0938C5.21875 9.8625 7.01875 8.0625 9.25 8.0625H13.2812V16.125H9.25C7.01875 16.125 5.21875 14.325 5.21875 12.0938Z" fill="#A259FF"/>
<path d="M5.21875 4.03125C5.21875 1.8 7.01875 0 9.25 0H13.2812V8.0625H9.25C7.01875 8.0625 5.21875 6.2625 5.21875 4.03125Z" fill="#F24E1E"/>
<path d="M13.2812 0H17.3125C19.5437 0 21.3438 1.8 21.3438 4.03125C21.3438 6.2625 19.5437 8.0625 17.3125 8.0625H13.2812V0Z" fill="#FF7262"/>
<path d="M21.3438 12.0938C21.3438 14.325 19.5437 16.125 17.3125 16.125C15.0813 16.125 13.2812 14.325 13.2812 12.0938C13.2812 9.8625 15.0813 8.0625 17.3125 8.0625C19.5437 8.0625 21.3438 9.8625 21.3438 12.0938Z" fill="#1ABCFE"/>
</g>
<defs>
<clipPath id="clip0_3886_11085">
<rect width="24" height="24" fill="white" transform="translate(0.71875)"/>
</clipPath>
</defs>
</svg>
