<svg width="25" height="24" viewBox="0 0 25 24" fill="none" xmlns="http://www.w3.org/2000/svg">
<path d="M19.0938 0H6.34375C3.23715 0 0.71875 2.5184 0.71875 5.625V18.375C0.71875 21.4816 3.23715 24 6.34375 24H19.0938C22.2004 24 24.7188 21.4816 24.7188 18.375V5.625C24.7188 2.5184 22.2004 0 19.0938 0Z" fill="white"/>
<path d="M14.3063 3.56831L19.5352 3.5625L10.7626 12.3306L8.47628 14.6041L5.875 11.9996L14.3063 3.56831ZM14.2577 11.3971C14.3255 11.3075 14.4504 11.3517 14.5452 11.3402L19.5307 11.3414L14.9869 15.8808L12.3722 13.282L14.2577 11.3971Z" fill="#44D1FD"/>
<path d="M9.76562 15.8854L12.3721 13.2822L14.9868 15.881L14.9977 15.8925L12.3727 18.4931L9.76562 15.8854Z" fill="#1FBCFD"/>
<path d="M12.373 18.4927L14.998 15.8921L19.5328 20.4314C17.8247 20.4352 16.1171 20.4301 14.4097 20.4339C14.3124 20.4557 14.2522 20.3667 14.19 20.3117L12.373 18.4927Z" fill="#08589C"/>
</svg>
