<svg width="88" height="88" viewBox="0 0 88 88" fill="none" xmlns="http://www.w3.org/2000/svg">
<g filter="url(#filter0_i_1307_8227)">
<path d="M77.9186 13.243L25.4526 2.091C20.0196 0.936171 14.6791 4.40434 13.5242 9.83737L2.37225 62.3033C1.21742 67.7364 4.68559 73.0769 10.1186 74.2317L62.5846 85.3837C68.0176 86.5385 73.3581 83.0704 74.513 77.6373L85.665 25.1714C86.8198 19.7383 83.3516 14.3978 77.9186 13.243Z" fill="url(#paint0_linear_1307_8227)"/>
<g clip-path="url(#clip0_1307_8227)">
<path d="M56.5273 27.2383H56.911C58.9033 27.2383 60.5203 28.8553 60.5203 30.8477V31.2313C60.519 36.0171 58.6168 40.6065 55.2321 43.9899L54.2875 44.9366C53.6385 45.5842 52.9654 46.2057 52.2683 46.8011V53.4155C52.2683 54.6695 51.6186 55.8328 50.5502 56.4887L44.8288 60.0093C44.6277 60.1331 44.401 60.2093 44.1659 60.2319C43.9308 60.2545 43.6937 60.2229 43.4727 60.1397C43.2517 60.0565 43.0527 59.9238 42.8909 59.7517C42.7292 59.5797 42.6089 59.3729 42.5395 59.1472L40.5718 52.7493C40.4641 52.6732 40.364 52.5868 40.2728 52.4915L35.263 47.4838C35.1684 47.3925 35.0827 47.2923 35.0072 47.1847L28.6093 45.2171C28.3836 45.1476 28.1768 45.0274 28.0048 44.8656C27.8328 44.7038 27.7 44.5048 27.6168 44.2838C27.5336 44.0628 27.5021 43.8257 27.5247 43.5906C27.5473 43.3556 27.6234 43.1288 27.7472 42.9277L31.2741 37.2063C31.597 36.6814 32.049 36.2479 32.5869 35.9472C33.1249 35.6464 33.7309 35.4885 34.3472 35.4883H40.9555C41.5508 34.7898 42.1723 34.1167 42.82 33.4691L43.7666 32.5245C47.1509 29.14 51.7411 27.2385 56.5273 27.2383ZM45.955 34.7107H45.9508L45.0062 35.6553C43.4387 37.2228 42.0424 38.9512 40.84 40.8116L37.7462 45.5904L42.1661 50.0103L46.945 46.9166C48.8053 45.7142 50.5337 44.3178 52.0991 42.7503L53.0458 41.8057C54.4343 40.417 55.5356 38.7684 56.2869 36.954C57.0382 35.1396 57.4248 33.1951 57.4245 31.2313V30.8477C57.4245 30.7109 57.3702 30.5798 57.2735 30.4831C57.1768 30.3864 57.0456 30.332 56.9089 30.332H56.5253C52.5607 30.3326 48.7586 31.9076 45.955 34.7107ZM34.8628 57.2683C33.3531 58.778 30.049 59.4236 28.665 59.636C28.5904 59.6487 28.5138 59.6433 28.4417 59.6204C28.3696 59.5974 28.304 59.5575 28.2505 59.504C28.197 59.4505 28.1571 59.3849 28.1341 59.3128C28.1112 59.2407 28.1058 59.1641 28.1185 59.0895C28.3309 57.7055 28.9765 54.4014 30.4903 52.8958C30.7702 52.5785 31.1122 52.3219 31.4951 52.1418C31.878 51.9618 32.2937 51.8621 32.7166 51.8488C33.1395 51.8356 33.5607 51.9092 33.9541 52.0649C34.3474 52.2207 34.7048 52.4555 35.0039 52.7547C35.3031 53.0539 35.5379 53.4112 35.6937 53.8046C35.8495 54.1979 35.923 54.6191 35.9098 55.042C35.8966 55.4649 35.7968 55.8806 35.6168 56.2635C35.4367 56.6464 35.1801 56.9884 34.8628 57.2683ZM49.1766 49.1523C48.9951 49.2761 48.8122 49.3964 48.628 49.5133L43.7811 52.6503L44.9113 56.3278L48.9311 53.8528C49.0062 53.8066 49.0681 53.742 49.1111 53.6651C49.1541 53.5882 49.1766 53.5016 49.1766 53.4135V49.1523ZM35.1062 43.9775L38.2453 39.1307C38.365 38.945 38.486 38.7622 38.6083 38.582H34.3451C34.257 38.582 34.1704 38.6046 34.0935 38.6475C34.0166 38.6905 33.952 38.7524 33.9058 38.8275L31.4308 42.8493L35.1062 43.9775ZM52.2703 37.5508C52.2703 38.0978 52.053 38.6224 51.6662 39.0092C51.2794 39.396 50.7548 39.6133 50.2078 39.6133C49.6608 39.6133 49.1362 39.396 48.7494 39.0092C48.3626 38.6224 48.1453 38.0978 48.1453 37.5508C48.1453 37.0038 48.3626 36.4792 48.7494 36.0924C49.1362 35.7056 49.6608 35.4883 50.2078 35.4883C50.7548 35.4883 51.2794 35.7056 51.6662 36.0924C52.053 36.4792 52.2703 37.0038 52.2703 37.5508Z" fill="#6300A4"/>
</g>
</g>
<defs>
<filter id="filter0_i_1307_8227" x="2.15039" y="1.86914" width="91.2792" height="88.7649" filterUnits="userSpaceOnUse" color-interpolation-filters="sRGB">
<feFlood flood-opacity="0" result="BackgroundImageFix"/>
<feBlend mode="normal" in="SourceGraphic" in2="BackgroundImageFix" result="shape"/>
<feColorMatrix in="SourceAlpha" type="matrix" values="0 0 0 0 0 0 0 0 0 0 0 0 0 0 0 0 0 0 127 0" result="hardAlpha"/>
<feOffset dx="7.54286" dy="5.02857"/>
<feGaussianBlur stdDeviation="4.60952"/>
<feComposite in2="hardAlpha" operator="arithmetic" k2="-1" k3="1"/>
<feColorMatrix type="matrix" values="0 0 0 0 1 0 0 0 0 1 0 0 0 0 1 0 0 0 0.06 0"/>
<feBlend mode="normal" in2="shape" result="effect1_innerShadow_1307_8227"/>
</filter>
<linearGradient id="paint0_linear_1307_8227" x1="3.60371" y1="39.3408" x2="84.4942" y2="47.5345" gradientUnits="userSpaceOnUse">
<stop stop-color="#A29DFB"/>
<stop offset="0.31" stop-color="#E4B8FE"/>
<stop offset="0.77" stop-color="#BC89F6"/>
<stop offset="1" stop-color="#A29DFB"/>
</linearGradient>
<clipPath id="clip0_1307_8227">
<rect width="33" height="33" fill="white" transform="translate(27.5195 27.2383)"/>
</clipPath>
</defs>
</svg>
