<svg width="28" height="28" viewBox="0 0 28 28" fill="none" xmlns="http://www.w3.org/2000/svg">
<rect y="-0.00878906" width="28" height="28" rx="14" fill="#FF0073" fill-opacity="0.35"/>
<g clip-path="url(#clip0_5425_526)">
<path d="M14.0031 10.3971C12.0156 10.3971 10.4125 12.0002 10.4125 13.9877C10.4125 15.9752 12.0156 17.5783 14.0031 17.5783C15.9906 17.5783 17.5938 15.9752 17.5938 13.9877C17.5938 12.0002 15.9906 10.3971 14.0031 10.3971ZM14.0031 16.3221C12.7188 16.3221 11.6688 15.2752 11.6688 13.9877C11.6688 12.7002 12.7156 11.6533 14.0031 11.6533C15.2906 11.6533 16.3375 12.7002 16.3375 13.9877C16.3375 15.2752 15.2875 16.3221 14.0031 16.3221ZM18.5781 10.2502C18.5781 10.7158 18.2031 11.0877 17.7407 11.0877C17.275 11.0877 16.9031 10.7127 16.9031 10.2502C16.9031 9.7877 17.2782 9.4127 17.7407 9.4127C18.2031 9.4127 18.5781 9.7877 18.5781 10.2502ZM20.9563 11.1002C20.9031 9.97832 20.6469 8.98457 19.825 8.16582C19.0063 7.34707 18.0125 7.09082 16.8906 7.03457C15.7344 6.96895 12.2688 6.96895 11.1125 7.03457C9.99377 7.0877 9.00002 7.34395 8.17815 8.1627C7.35627 8.98145 7.10315 9.9752 7.0469 11.0971C6.98127 12.2533 6.98127 15.7189 7.0469 16.8752C7.10002 17.9971 7.35627 18.9908 8.17815 19.8096C9.00002 20.6283 9.99065 20.8846 11.1125 20.9408C12.2688 21.0064 15.7344 21.0064 16.8906 20.9408C18.0125 20.8877 19.0063 20.6314 19.825 19.8096C20.6438 18.9908 20.9 17.9971 20.9563 16.8752C21.0219 15.7189 21.0219 12.2564 20.9563 11.1002ZM19.4625 18.1158C19.2188 18.7283 18.7469 19.2002 18.1313 19.4471C17.2094 19.8127 15.0219 19.7283 14.0031 19.7283C12.9844 19.7283 10.7938 19.8096 9.87502 19.4471C9.26252 19.2033 8.79065 18.7314 8.54377 18.1158C8.17815 17.1939 8.26252 15.0064 8.26252 13.9877C8.26252 12.9689 8.18127 10.7783 8.54377 9.85957C8.78752 9.24707 9.2594 8.7752 9.87502 8.52832C10.7969 8.1627 12.9844 8.24707 14.0031 8.24707C15.0219 8.24707 17.2125 8.16582 18.1313 8.52832C18.7438 8.77207 19.2156 9.24395 19.4625 9.85957C19.8281 10.7814 19.7438 12.9689 19.7438 13.9877C19.7438 15.0064 19.8281 17.1971 19.4625 18.1158Z" fill="#FF0073"/>
</g>
<defs>
<clipPath id="clip0_5425_526">
<rect width="16" height="16" fill="white" transform="translate(6 5.99121)"/>
</clipPath>
</defs>
</svg>
