<svg width="33" height="32" viewBox="0 0 33 32" fill="none" xmlns="http://www.w3.org/2000/svg">
<path d="M22.7825 16.0013C22.7825 15.0946 22.7026 14.2146 22.5959 13.3346H27.1025C27.3159 14.188 27.4492 15.0813 27.4492 16.0013C27.4492 16.4946 27.4092 16.9746 27.3425 17.4413C28.2625 17.5746 29.1159 17.868 29.9025 18.2946C30.0359 17.548 30.1159 16.788 30.1159 16.0013C30.1159 8.66797 24.1159 2.66797 16.7825 2.66797C9.40922 2.66797 3.44922 8.66797 3.44922 16.0013C3.44922 23.3346 9.44922 29.3346 16.7825 29.3346C17.5692 29.3346 18.3292 29.2546 19.0759 29.1213C18.4426 27.9599 18.1124 26.6575 18.1159 25.3346C18.1159 24.948 18.1559 24.5746 18.2092 24.2013C17.7825 25.0413 17.3159 25.8546 16.7825 26.6146C15.6759 25.0146 14.7826 23.2413 14.2359 21.3346H19.1959C19.9967 19.9431 21.2008 18.8273 22.6492 18.1346C22.7292 17.428 22.7825 16.7213 22.7825 16.0013ZM16.7825 5.37464C17.8892 6.97464 18.7825 8.7613 19.3292 10.668H14.2359C14.7826 8.7613 15.6759 6.97464 16.7825 5.37464ZM6.46255 18.668C6.24922 17.8146 6.11589 16.9213 6.11589 16.0013C6.11589 15.0813 6.24922 14.188 6.46255 13.3346H10.9692C10.8626 14.2146 10.7826 15.0946 10.7826 16.0013C10.7826 16.908 10.8626 17.788 10.9692 18.668H6.46255ZM7.55588 21.3346H11.4492C11.9159 23.0013 12.5159 24.6013 13.3159 26.0813C10.8869 25.2444 8.8416 23.5589 7.55588 21.3346ZM11.4492 10.668H7.55588C8.83407 8.43735 10.8821 6.74962 13.3159 5.9213C12.5159 7.4013 11.9159 9.0013 11.4492 10.668ZM19.9025 18.668H13.6625C13.5292 17.788 13.4492 16.908 13.4492 16.0013C13.4492 15.0946 13.5292 14.2013 13.6625 13.3346H19.9025C20.0226 14.2013 20.1159 15.0946 20.1159 16.0013C20.1159 16.908 20.0226 17.788 19.9025 18.668ZM20.2359 5.9213C22.6892 6.7613 24.7292 8.45464 26.0092 10.668H22.0759C21.6579 9.01678 21.04 7.42278 20.2359 5.9213ZM30.7825 23.0013L24.4492 29.3346L20.7825 25.3346L22.3292 23.788L24.4492 25.908L29.2359 21.1213L30.7825 23.0013Z" fill="#FF0073"/>
</svg>
