<svg width="25" height="25" viewBox="0 0 25 25" fill="none" xmlns="http://www.w3.org/2000/svg">
<path d="M20.7484 5.97852C20.5794 5.53452 20.1744 4.90952 19.6004 4.46552C19.2634 4.21252 18.8804 3.96552 18.3404 3.80752C17.7574 3.63852 17.0364 3.58252 16.1584 3.58252H8.0584C7.1754 3.58252 6.4604 3.63852 5.8814 3.81252C5.3414 3.97652 4.9414 4.21852 4.6164 4.47152C4.10964 4.86982 3.71252 5.39048 3.4624 5.98452C3.1144 6.87852 3.1084 7.89152 3.1084 8.53252V16.6325C3.1084 17.2735 3.1144 18.2865 3.4624 19.1865C3.68184 19.7037 4.01239 20.1663 4.43061 20.5415C4.84883 20.9167 5.34448 21.1953 5.8824 21.3575C6.4614 21.5265 7.1754 21.5825 8.0584 21.5825H16.1584C17.0414 21.5825 17.7564 21.5265 18.3354 21.3525C18.8754 21.1885 19.2754 20.9465 19.6004 20.6935C20.1072 20.2952 20.5043 19.7746 20.7544 19.1805C21.1084 18.2865 21.1084 17.2685 21.1084 16.6265V8.52652C21.1084 7.88652 21.1024 6.87352 20.7544 5.97352L20.7484 5.97852ZM6.6744 15.9575H6.0044V11.9575H6.6744V15.9575ZM6.3424 11.2835C6.23207 11.2835 6.12626 11.2397 6.04824 11.1617C5.97023 11.0837 5.9264 10.9778 5.9264 10.8675C5.9264 10.7572 5.97023 10.6514 6.04824 10.5734C6.12626 10.4953 6.23207 10.4515 6.3424 10.4515C6.45327 10.451 6.55986 10.4943 6.63892 10.5721C6.71797 10.6498 6.76308 10.7557 6.7644 10.8665C6.76257 10.9774 6.71736 11.0832 6.63848 11.1611C6.55959 11.2391 6.4533 11.283 6.3424 11.2835ZM10.3644 16.0585C8.5984 16.0585 7.4844 14.7985 7.4844 12.7905C7.4844 10.7825 8.5984 9.51652 10.3644 9.51652C12.1314 9.51652 13.2444 10.7825 13.2444 12.7905C13.2444 14.7985 12.1314 16.0585 10.3644 16.0585ZM16.1924 16.0585C14.8644 16.0585 13.9314 15.3275 13.8694 14.2365H14.4714C14.5384 14.9965 15.2524 15.5135 16.2484 15.5135C17.1984 15.5135 17.8794 14.9955 17.8794 14.2815C17.8794 13.6915 17.4694 13.3365 16.5294 13.1005L15.7424 12.8975C14.5664 12.5995 14.0434 12.1045 14.0434 11.2665C14.0434 10.2425 14.9654 9.51152 16.2144 9.51152C17.4524 9.51152 18.3524 10.2425 18.3914 11.2495H17.7894C17.7334 10.5355 17.0974 10.0565 16.1974 10.0565C15.3204 10.0565 14.6674 10.5465 14.6674 11.2435C14.6674 11.7895 15.0614 12.1105 15.9954 12.3465L16.6814 12.5205C17.9584 12.8405 18.4924 13.3305 18.4924 14.2135C18.4924 15.3275 17.5984 16.0585 16.1924 16.0585ZM12.6324 12.7905C12.6324 14.4505 11.7544 15.5015 10.3644 15.5015C8.9744 15.5015 8.1034 14.4495 8.1034 12.7915C8.1034 11.1255 8.9754 10.0735 10.3644 10.0735C11.7534 10.0735 12.6314 11.1255 12.6314 12.7905" fill="white"/>
</svg>
