<svg width="25" height="24" viewBox="0 0 25 24" fill="none" xmlns="http://www.w3.org/2000/svg">
<path d="M19.0938 0H6.34375C3.23715 0 0.71875 2.5184 0.71875 5.625V18.375C0.71875 21.4816 3.23715 24 6.34375 24H19.0938C22.2004 24 24.7188 21.4816 24.7188 18.375V5.625C24.7188 2.5184 22.2004 0 19.0938 0Z" fill="#F7DF1E"/>
<path d="M7.02939 20.0559L8.86595 18.9444C9.22033 19.5727 9.54264 20.1042 10.3158 20.1042C11.0569 20.1042 11.5241 19.8143 11.5241 18.6867V11.0182H13.7796V18.7186C13.7796 21.0546 12.4103 22.1179 10.4125 22.1179C8.60824 22.1179 7.56095 21.1835 7.0293 20.0558M15.0046 19.8143L16.841 18.751C17.3245 19.5405 17.9528 20.1204 19.0643 20.1204C19.9989 20.1204 20.5947 19.6532 20.5947 19.0088C20.5947 18.2355 19.9825 17.9616 18.9515 17.5106L18.3878 17.2688C16.7605 16.5762 15.6811 15.7062 15.6811 13.8697C15.6811 12.178 16.97 10.8892 18.9838 10.8892C20.4176 10.8892 21.4487 11.3887 22.1897 12.6936L20.4337 13.8213C20.047 13.1286 19.6283 12.8547 18.9838 12.8547C18.3233 12.8547 17.9044 13.2736 17.9044 13.8213C17.9044 14.4979 18.3233 14.7718 19.2898 15.1908L19.8536 15.4324C21.7707 16.2541 22.8502 17.0917 22.8502 18.9765C22.8502 21.0066 21.2553 22.1181 19.1126 22.1181C17.0184 22.1181 15.6651 21.1193 15.0046 19.8143Z" fill="black"/>
</svg>
