<svg width="28" height="28" viewBox="0 0 28 28" fill="none" xmlns="http://www.w3.org/2000/svg">
<rect y="-0.00878906" width="28" height="28" rx="14" fill="#FF0073" fill-opacity="0.35"/>
<path d="M10.7059 20.2311H7.88232V10.8193H10.7059V20.2311ZM21.0588 20.2311H18.2353V15.2033C18.2353 13.8932 17.7684 13.241 16.8433 13.241C16.1101 13.241 15.6451 13.6062 15.4117 14.3375V20.2311H12.5882C12.5882 20.2311 12.6259 11.7605 12.5882 10.8193H14.8169L14.9891 12.7017H15.0475C15.6263 11.7605 16.5515 11.1224 17.8202 11.1224C18.7849 11.1224 19.5651 11.3906 20.1609 12.0645C20.7604 12.7393 21.0588 13.6447 21.0588 14.9163V20.2311Z" fill="#FF0073"/>
<path d="M9.29403 9.87822C10.0997 9.87822 10.7529 9.24615 10.7529 8.46645C10.7529 7.68676 10.0997 7.05469 9.29403 7.05469C8.48834 7.05469 7.83521 7.68676 7.83521 8.46645C7.83521 9.24615 8.48834 9.87822 9.29403 9.87822Z" fill="#FF0073"/>
</svg>
