<svg width="44" height="44" viewBox="0 0 44 44" fill="none" xmlns="http://www.w3.org/2000/svg">
<g filter="url(#filter0_d_5327_9539)">
<rect x="2" y="1" width="40" height="40" rx="8" fill="#FF0073" fill-opacity="0.18"/>
<rect x="2.5" y="1.5" width="39" height="39" rx="7.5" stroke="#FF0073"/>
<g clip-path="url(#clip0_5327_9539)">
<path d="M30.5236 11H13.4764C13.0848 11 12.7093 11.1555 12.4324 11.4324C12.1555 11.7093 12 12.0848 12 12.4764V29.5236C12 29.9152 12.1555 30.2907 12.4324 30.5676C12.7093 30.8445 13.0848 31 13.4764 31H30.5236C30.9152 31 31.2907 30.8445 31.5676 30.5676C31.8445 30.2907 32 29.9152 32 29.5236V12.4764C32 12.0848 31.8445 11.7093 31.5676 11.4324C31.2907 11.1555 30.9152 11 30.5236 11ZM17.9611 28.0375H14.9542V18.4861H17.9611V28.0375ZM16.4556 17.1625C16.1145 17.1606 15.7816 17.0577 15.4989 16.8667C15.2163 16.6758 14.9965 16.4054 14.8674 16.0897C14.7383 15.774 14.7055 15.4272 14.7734 15.0929C14.8412 14.7586 15.0065 14.4519 15.2485 14.2115C15.4904 13.9711 15.7982 13.8077 16.1329 13.7421C16.4676 13.6764 16.8143 13.7113 17.1291 13.8425C17.444 13.9736 17.7129 14.1951 17.9021 14.479C18.0912 14.7629 18.1919 15.0964 18.1917 15.4375C18.1949 15.6659 18.1521 15.8925 18.0658 16.104C17.9796 16.3155 17.8517 16.5074 17.6896 16.6684C17.5276 16.8294 17.3349 16.9561 17.1229 17.041C16.9108 17.1258 16.6839 17.1672 16.4556 17.1625ZM29.0444 28.0458H26.0389V22.8278C26.0389 21.2889 25.3847 20.8139 24.5403 20.8139C23.6486 20.8139 22.7736 21.4861 22.7736 22.8667V28.0458H19.7667V18.4931H22.6583V19.8167H22.6972C22.9875 19.2292 24.0042 18.225 25.5556 18.225C27.2333 18.225 29.0458 19.2208 29.0458 22.1375L29.0444 28.0458Z" fill="#FF0073"/>
</g>
</g>
<defs>
<filter id="filter0_d_5327_9539" x="0" y="0" width="44" height="44" filterUnits="userSpaceOnUse" color-interpolation-filters="sRGB">
<feFlood flood-opacity="0" result="BackgroundImageFix"/>
<feColorMatrix in="SourceAlpha" type="matrix" values="0 0 0 0 0 0 0 0 0 0 0 0 0 0 0 0 0 0 127 0" result="hardAlpha"/>
<feOffset dy="1"/>
<feGaussianBlur stdDeviation="1"/>
<feColorMatrix type="matrix" values="0 0 0 0 0.0627451 0 0 0 0 0.0941176 0 0 0 0 0.156863 0 0 0 0.05 0"/>
<feBlend mode="normal" in2="BackgroundImageFix" result="effect1_dropShadow_5327_9539"/>
<feBlend mode="normal" in="SourceGraphic" in2="effect1_dropShadow_5327_9539" result="shape"/>
</filter>
<clipPath id="clip0_5327_9539">
<rect width="20" height="20" fill="white" transform="translate(12 11)"/>
</clipPath>
</defs>
</svg>
