<svg width="178" height="53" viewBox="0 0 178 53" fill="none" xmlns="http://www.w3.org/2000/svg">
<path d="M26.6091 19.8588L25.9073 18.8926L13.4493 16.9314L0.313477 26.494L0.885503 27.2743L10.2478 28.7453L13.1993 26.5982L16.4888 27.2279L26.6091 19.8588Z" fill="#FF0073"/>
<mask id="mask0_2928_11832" style="mask-type:luminance" maskUnits="userSpaceOnUse" x="19" y="0" width="17" height="25">
<path d="M19.1699 0.951828H35.1674V24.1437H19.1699V0.951828Z" fill="white"/>
</mask>
<g mask="url(#mask0_2928_11832)">
<path d="M23.6648 13.24L24.083 16.5616L34.2193 23.9114L34.9211 22.942L32.9358 10.4904L19.7808 0.951828L19.2168 1.73696L20.7118 11.0945L23.6648 13.24Z" fill="#FF0073"/>
</g>
<mask id="mask1_2928_11832" style="mask-type:luminance" maskUnits="userSpaceOnUse" x="32" y="11" width="19" height="23">
<path d="M32.7061 11.0121H50.1376V33.1625H32.7061V11.0121Z" fill="white"/>
</mask>
<g mask="url(#mask1_2928_11832)">
<path d="M33.8583 32.7612L45.089 27.0249L50.0946 11.5674L49.1749 11.2726L40.7371 15.586L39.6091 19.0582L36.5775 20.4811L32.7207 32.3927L33.8583 32.7612Z" fill="#FF0073"/>
</g>
<path d="M42.6452 36.0192L38.9967 36.0208L36.707 33.5788L24.1865 33.5901L24.1881 34.787L33.113 43.6943L49.3605 43.6798L49.3573 42.712L42.6452 36.0192Z" fill="#FF0073"/>
<mask id="mask2_2928_11832" style="mask-type:luminance" maskUnits="userSpaceOnUse" x="13" y="25" width="12" height="28">
<path d="M13.4268 25.7835H24.502V52.9427H13.4268V25.7835Z" fill="white"/>
</mask>
<g mask="url(#mask2_2928_11832)">
<path d="M20.4091 25.8494L19.2715 26.2195L13.5576 37.4613L18.5937 52.9093L19.5118 52.6064L23.8028 44.1558L22.6748 40.6852L24.2883 37.753L20.4091 25.8494Z" fill="#FF0073"/>
</g>
<path d="M69.1377 25.2121C68.0044 25.2121 66.9433 25.0232 65.9544 24.6454C64.9766 24.2566 64.1155 23.7121 63.371 23.0121C62.6377 22.3121 62.0655 21.4899 61.6544 20.5454C61.2433 19.601 61.0377 18.5677 61.0377 17.4454C61.0377 16.3232 61.2433 15.2899 61.6544 14.3454C62.0655 13.3899 62.6377 12.5621 63.371 11.8621C64.1155 11.151 64.971 10.601 65.9377 10.2121C66.9155 9.81211 67.971 9.61211 69.1044 9.61211C70.1266 9.61211 71.0821 9.77322 71.971 10.0954C72.8599 10.4177 73.6488 10.8732 74.3377 11.4621L73.4877 14.8954C73.0655 14.2066 72.4821 13.6288 71.7377 13.1621C71.0044 12.6843 70.1266 12.4454 69.1044 12.4454C68.1599 12.4454 67.3155 12.6621 66.571 13.0954C65.8266 13.5288 65.2377 14.1232 64.8044 14.8788C64.3821 15.6343 64.171 16.4899 64.171 17.4454C64.171 18.4232 64.3821 19.2899 64.8044 20.0454C65.2377 20.7899 65.8266 21.3788 66.571 21.8121C67.3155 22.2343 68.1544 22.4454 69.0877 22.4454C69.5433 22.4454 69.9655 22.401 70.3544 22.3121C70.7433 22.2232 71.0933 22.0899 71.4044 21.9121V19.0121H68.3544V16.5121H74.1377V23.7954C73.4488 24.2399 72.6766 24.5899 71.821 24.8454C70.9766 25.0899 70.0821 25.2121 69.1377 25.2121ZM80.4325 25.2454C79.7325 25.2454 79.0714 25.0788 78.4492 24.7454C77.8269 24.401 77.3214 23.9066 76.9325 23.2621C76.5547 22.6066 76.3658 21.8177 76.3658 20.8954V14.9121H79.2658V20.5121C79.2658 21.0677 79.4325 21.5621 79.7658 21.9954C80.1103 22.4288 80.588 22.6454 81.1992 22.6454C81.6992 22.6454 82.1436 22.4677 82.5325 22.1121C82.9325 21.7454 83.1325 21.2232 83.1325 20.5454V14.9121H86.0325V24.9121H83.3992V23.8621C83.0436 24.3066 82.6047 24.651 82.0825 24.8954C81.5714 25.1288 81.0214 25.2454 80.4325 25.2454ZM88.2377 24.9121V14.9121H90.8377V16.0121C91.1933 15.5454 91.6321 15.1899 92.1544 14.9454C92.6766 14.701 93.2377 14.5788 93.8377 14.5788C94.5488 14.5788 95.2099 14.751 95.821 15.0954C96.4433 15.4288 96.9433 15.9232 97.321 16.5788C97.7099 17.2232 97.9044 18.0066 97.9044 18.9288V24.9121H95.0044V19.3121C95.0044 18.7566 94.8377 18.2621 94.5044 17.8288C94.171 17.3954 93.6933 17.1788 93.071 17.1788C92.571 17.1788 92.121 17.351 91.721 17.6954C91.3321 18.0288 91.1377 18.5566 91.1377 19.2788V24.9121H88.2377ZM99.9096 29.9121V14.9121H102.41V15.8954C102.798 15.5066 103.254 15.201 103.776 14.9788C104.31 14.7566 104.893 14.6454 105.526 14.6454C106.46 14.6454 107.304 14.8843 108.06 15.3621C108.815 15.8288 109.415 16.4621 109.86 17.2621C110.315 18.0621 110.543 18.9454 110.543 19.9121C110.543 20.8788 110.315 21.7621 109.86 22.5621C109.415 23.351 108.815 23.9843 108.06 24.4621C107.304 24.9399 106.46 25.1788 105.526 25.1788C104.993 25.1788 104.498 25.0954 104.043 24.9288C103.587 24.7732 103.176 24.5566 102.81 24.2788V29.9121H99.9096ZM105.193 22.6288C105.682 22.6288 106.126 22.5066 106.526 22.2621C106.926 22.0177 107.243 21.6899 107.476 21.2788C107.721 20.8677 107.843 20.4121 107.843 19.9121C107.843 19.4121 107.721 18.9566 107.476 18.5454C107.243 18.1343 106.926 17.8066 106.526 17.5621C106.126 17.3177 105.682 17.1954 105.193 17.1954C104.704 17.1954 104.26 17.3177 103.86 17.5621C103.46 17.8066 103.137 18.1343 102.893 18.5454C102.66 18.9566 102.543 19.4121 102.543 19.9121C102.543 20.4121 102.66 20.8677 102.893 21.2788C103.137 21.6899 103.46 22.0177 103.86 22.2621C104.26 22.5066 104.704 22.6288 105.193 22.6288ZM117.138 25.2454C116.149 25.2454 115.243 25.0066 114.421 24.5288C113.599 24.051 112.943 23.4066 112.454 22.5954C111.977 21.7843 111.738 20.8899 111.738 19.9121C111.738 18.9232 111.977 18.0288 112.454 17.2288C112.943 16.4177 113.599 15.7732 114.421 15.2954C115.243 14.8177 116.149 14.5788 117.138 14.5788C118.138 14.5788 119.043 14.8177 119.854 15.2954C120.677 15.7732 121.327 16.4177 121.804 17.2288C122.293 18.0288 122.538 18.9232 122.538 19.9121C122.538 20.8899 122.293 21.7843 121.804 22.5954C121.327 23.4066 120.677 24.051 119.854 24.5288C119.043 25.0066 118.138 25.2454 117.138 25.2454ZM117.138 22.6454C117.638 22.6454 118.088 22.5232 118.488 22.2788C118.899 22.0343 119.221 21.7066 119.454 21.2954C119.699 20.8732 119.821 20.4121 119.821 19.9121C119.821 19.401 119.699 18.9399 119.454 18.5288C119.221 18.1177 118.899 17.7899 118.488 17.5454C118.088 17.301 117.638 17.1788 117.138 17.1788C116.638 17.1788 116.182 17.301 115.771 17.5454C115.371 17.7899 115.049 18.1177 114.804 18.5288C114.571 18.9399 114.454 19.401 114.454 19.9121C114.454 20.4121 114.571 20.8732 114.804 21.2954C115.049 21.7066 115.371 22.0343 115.771 22.2788C116.182 22.5232 116.638 22.6454 117.138 22.6454ZM127.893 25.4121L122.91 14.9121H126.026L127.56 18.1288C127.704 18.4066 127.848 18.7121 127.993 19.0454C128.137 19.3677 128.282 19.7343 128.426 20.1454C128.582 19.7566 128.732 19.4177 128.876 19.1288C129.032 18.8288 129.182 18.5399 129.326 18.2621L131.21 14.5788L133.16 18.2621C133.293 18.5066 133.432 18.7788 133.576 19.0788C133.732 19.3788 133.882 19.7343 134.026 20.1454C134.171 19.701 134.31 19.3232 134.443 19.0121C134.587 18.701 134.726 18.4066 134.86 18.1288L136.393 14.9121H139.376L134.393 25.4121L132.11 21.5621C131.932 21.2732 131.765 20.9788 131.61 20.6788C131.454 20.3788 131.298 20.0621 131.143 19.7288C130.998 20.0621 130.843 20.3788 130.676 20.6788C130.521 20.9788 130.354 21.2732 130.176 21.5621L127.893 25.4121ZM144.598 25.1788C143.665 25.1788 142.82 24.9399 142.065 24.4621C141.309 23.9843 140.704 23.351 140.248 22.5621C139.804 21.7621 139.581 20.8788 139.581 19.9121C139.581 18.9454 139.804 18.0621 140.248 17.2621C140.704 16.4621 141.309 15.8288 142.065 15.3621C142.82 14.8843 143.665 14.6454 144.598 14.6454C145.131 14.6454 145.626 14.7232 146.081 14.8788C146.537 15.0343 146.948 15.2566 147.315 15.5454V8.91211H150.215V24.9121H147.715V23.9288C147.337 24.3177 146.881 24.6232 146.348 24.8454C145.815 25.0677 145.231 25.1788 144.598 25.1788ZM144.931 22.6288C145.42 22.6288 145.865 22.5066 146.265 22.2621C146.665 22.0177 146.981 21.6899 147.215 21.2788C147.459 20.8677 147.581 20.4121 147.581 19.9121C147.581 19.4121 147.459 18.9566 147.215 18.5454C146.981 18.1343 146.665 17.8066 146.265 17.5621C145.865 17.3177 145.42 17.1954 144.931 17.1954C144.443 17.1954 143.998 17.3177 143.598 17.5621C143.198 17.8066 142.876 18.1343 142.631 18.5454C142.398 18.9566 142.281 19.4121 142.281 19.9121C142.281 20.4121 142.398 20.8677 142.631 21.2788C142.876 21.6899 143.198 22.0177 143.598 22.2621C143.998 22.5066 144.443 22.6288 144.931 22.6288ZM157.593 25.2454C156.471 25.2454 155.482 25.0121 154.626 24.5454C153.771 24.0788 153.104 23.4399 152.626 22.6288C152.148 21.8066 151.91 20.8677 151.91 19.8121C151.91 18.801 152.143 17.9066 152.61 17.1288C153.076 16.3399 153.704 15.7177 154.493 15.2621C155.293 14.8066 156.176 14.5788 157.143 14.5788C158.132 14.5788 159.015 14.8066 159.793 15.2621C160.571 15.7066 161.182 16.3177 161.626 17.0954C162.082 17.8732 162.31 18.7566 162.31 19.7454V20.7621H156.21C155.932 20.7621 155.665 20.7454 155.41 20.7121C155.154 20.6788 154.898 20.6399 154.643 20.5954C154.776 21.2621 155.104 21.8066 155.626 22.2288C156.16 22.6399 156.837 22.8454 157.66 22.8454C158.293 22.8454 158.86 22.7177 159.36 22.4621C159.871 22.2066 160.287 21.8899 160.61 21.5121L161.243 24.1121C160.743 24.4899 160.176 24.7732 159.543 24.9621C158.921 25.151 158.271 25.2454 157.593 25.2454ZM154.576 18.8454C155.132 18.7232 155.676 18.6621 156.21 18.6621H157.976C158.287 18.6621 158.582 18.6732 158.86 18.6954C159.137 18.7177 159.398 18.7566 159.643 18.8121C159.476 18.2121 159.171 17.7399 158.726 17.3954C158.293 17.051 157.754 16.8788 157.11 16.8788C156.498 16.8788 155.965 17.0566 155.51 17.4121C155.065 17.7566 154.754 18.2343 154.576 18.8454ZM163.917 24.9121V14.9121H166.517V16.6288C166.862 16.051 167.295 15.6066 167.817 15.2954C168.351 14.9732 168.973 14.8121 169.684 14.8121L170.317 17.3788C170.106 17.3121 169.867 17.2788 169.601 17.2788C168.767 17.2788 168.095 17.551 167.584 18.0954C167.073 18.6288 166.817 19.3954 166.817 20.3954V24.9121H163.917Z" fill="white"/>
<path d="M61.671 48.4434V38.4434H62.9377V48.4434H61.671ZM65.5325 48.4434V41.7767H66.6436V42.8545C66.888 42.4619 67.2029 42.1619 67.588 41.9545C67.9806 41.7471 68.4029 41.6434 68.8547 41.6434C69.3288 41.6434 69.7658 41.7619 70.1658 41.9989C70.5732 42.2285 70.9029 42.5656 71.1547 43.01C71.4066 43.4471 71.5325 43.9804 71.5325 44.61V48.4434H70.3325V44.7767C70.3325 44.2508 70.1732 43.7878 69.8547 43.3878C69.5436 42.9804 69.1029 42.7767 68.5325 42.7767C68.0658 42.7767 67.6473 42.9471 67.2769 43.2878C66.914 43.6211 66.7325 44.1063 66.7325 44.7434V48.4434H65.5325ZM73.5325 48.4434V41.7767H74.6436V42.8545C74.888 42.4619 75.2029 42.1619 75.588 41.9545C75.9806 41.7471 76.4029 41.6434 76.8547 41.6434C77.3288 41.6434 77.7658 41.7619 78.1658 41.9989C78.5732 42.2285 78.9029 42.5656 79.1547 43.01C79.4066 43.4471 79.5325 43.9804 79.5325 44.61V48.4434H78.3325V44.7767C78.3325 44.2508 78.1732 43.7878 77.8547 43.3878C77.5436 42.9804 77.1029 42.7767 76.5325 42.7767C76.0658 42.7767 75.6473 42.9471 75.2769 43.2878C74.914 43.6211 74.7325 44.1063 74.7325 44.7434V48.4434H73.5325ZM84.5769 48.5767C83.9325 48.5767 83.3436 48.4211 82.8103 48.11C82.2769 47.7989 81.851 47.3804 81.5325 46.8545C81.2214 46.3285 81.0658 45.7471 81.0658 45.11C81.0658 44.4656 81.2214 43.8841 81.5325 43.3656C81.851 42.8397 82.2769 42.4211 82.8103 42.11C83.3436 41.7989 83.9325 41.6434 84.5769 41.6434C85.2288 41.6434 85.8177 41.7989 86.3436 42.11C86.8769 42.4211 87.2992 42.8397 87.6103 43.3656C87.9288 43.8841 88.088 44.4656 88.088 45.11C88.088 45.7471 87.9288 46.3285 87.6103 46.8545C87.2992 47.3804 86.8769 47.7989 86.3436 48.11C85.8177 48.4211 85.2288 48.5767 84.5769 48.5767ZM84.5769 47.4434C85.0066 47.4434 85.3954 47.3397 85.7436 47.1322C86.0917 46.9174 86.3695 46.636 86.5769 46.2878C86.7843 45.9322 86.888 45.5397 86.888 45.11C86.888 44.6804 86.7843 44.2915 86.5769 43.9434C86.3695 43.5878 86.0917 43.3063 85.7436 43.0989C85.3954 42.8841 85.0066 42.7767 84.5769 42.7767C84.1473 42.7767 83.7584 42.8841 83.4103 43.0989C83.0621 43.3063 82.7843 43.5878 82.5769 43.9434C82.3695 44.2915 82.2658 44.6804 82.2658 45.11C82.2658 45.5397 82.3695 45.9322 82.5769 46.2878C82.7843 46.636 83.0621 46.9174 83.4103 47.1322C83.7584 47.3397 84.1473 47.4434 84.5769 47.4434ZM91.9658 48.7767L88.5992 41.7767H89.9658L91.3214 44.6656C91.4473 44.9248 91.5658 45.1804 91.6769 45.4322C91.788 45.6841 91.8954 45.9915 91.9992 46.3545C92.1103 45.9915 92.2214 45.6841 92.3325 45.4322C92.451 45.173 92.5695 44.9174 92.688 44.6656L94.0547 41.7767H95.3325L91.9658 48.7767ZM99.0599 48.5322C98.4525 48.5322 97.897 48.3804 97.3933 48.0767C96.8895 47.7656 96.4858 47.3508 96.1821 46.8322C95.8858 46.3137 95.7377 45.7397 95.7377 45.11C95.7377 44.4804 95.8858 43.9063 96.1821 43.3878C96.4858 42.8693 96.8895 42.4582 97.3933 42.1545C97.897 41.8434 98.4525 41.6878 99.0599 41.6878C99.5192 41.6878 99.9488 41.773 100.349 41.9434C100.756 42.1137 101.108 42.3508 101.404 42.6545V41.7767H102.515V48.4434H101.404V47.5656C101.108 47.8619 100.756 48.0989 100.349 48.2767C99.9488 48.4471 99.5192 48.5322 99.0599 48.5322ZM99.2155 47.4434C99.6377 47.4434 100.019 47.3397 100.36 47.1322C100.708 46.9174 100.982 46.636 101.182 46.2878C101.39 45.9322 101.493 45.5397 101.493 45.11C101.493 44.6804 101.39 44.2915 101.182 43.9434C100.982 43.5878 100.708 43.3063 100.36 43.0989C100.019 42.8841 99.6377 42.7767 99.2155 42.7767C98.7933 42.7767 98.4081 42.8841 98.0599 43.0989C97.7192 43.3063 97.4451 43.5878 97.2377 43.9434C97.0377 44.2915 96.9377 44.6804 96.9377 45.11C96.9377 45.5397 97.0377 45.9322 97.2377 46.2878C97.4451 46.636 97.7192 46.9174 98.0599 47.1322C98.4081 47.3397 98.7933 47.4434 99.2155 47.4434ZM105.42 48.4434V42.7767H103.909V41.7767H105.453V39.5545H106.586V41.7767H108.242V42.7767H106.62V48.4434H105.42ZM109.642 48.4434V41.7767H110.842V48.4434H109.642ZM110.242 40.5767C110.02 40.5767 109.831 40.4989 109.675 40.3434C109.52 40.1878 109.442 39.9989 109.442 39.7767C109.442 39.5471 109.52 39.3582 109.675 39.21C109.831 39.0545 110.02 38.9767 110.242 38.9767C110.471 38.9767 110.66 39.0545 110.809 39.21C110.964 39.3582 111.042 39.5471 111.042 39.7767C111.042 39.9989 110.964 40.1878 110.809 40.3434C110.66 40.4989 110.471 40.5767 110.242 40.5767ZM116.014 48.5767C115.37 48.5767 114.781 48.4211 114.248 48.11C113.714 47.7989 113.289 47.3804 112.97 46.8545C112.659 46.3285 112.503 45.7471 112.503 45.11C112.503 44.4656 112.659 43.8841 112.97 43.3656C113.289 42.8397 113.714 42.4211 114.248 42.11C114.781 41.7989 115.37 41.6434 116.014 41.6434C116.666 41.6434 117.255 41.7989 117.781 42.11C118.314 42.4211 118.737 42.8397 119.048 43.3656C119.366 43.8841 119.526 44.4656 119.526 45.11C119.526 45.7471 119.366 46.3285 119.048 46.8545C118.737 47.3804 118.314 47.7989 117.781 48.11C117.255 48.4211 116.666 48.5767 116.014 48.5767ZM116.014 47.4434C116.444 47.4434 116.833 47.3397 117.181 47.1322C117.529 46.9174 117.807 46.636 118.014 46.2878C118.222 45.9322 118.326 45.5397 118.326 45.11C118.326 44.6804 118.222 44.2915 118.014 43.9434C117.807 43.5878 117.529 43.3063 117.181 43.0989C116.833 42.8841 116.444 42.7767 116.014 42.7767C115.585 42.7767 115.196 42.8841 114.848 43.0989C114.5 43.3063 114.222 43.5878 114.014 43.9434C113.807 44.2915 113.703 44.6804 113.703 45.11C113.703 45.5397 113.807 45.9322 114.014 46.2878C114.222 46.636 114.5 46.9174 114.848 47.1322C115.196 47.3397 115.585 47.4434 116.014 47.4434ZM121.189 48.4434V41.7767H122.3V42.8545C122.544 42.4619 122.859 42.1619 123.244 41.9545C123.637 41.7471 124.059 41.6434 124.511 41.6434C124.985 41.6434 125.422 41.7619 125.822 41.9989C126.229 42.2285 126.559 42.5656 126.811 43.01C127.063 43.4471 127.189 43.9804 127.189 44.61V48.4434H125.989V44.7767C125.989 44.2508 125.829 43.7878 125.511 43.3878C125.2 42.9804 124.759 42.7767 124.189 42.7767C123.722 42.7767 123.304 42.9471 122.933 43.2878C122.57 43.6211 122.389 44.1063 122.389 44.7434V48.4434H121.189ZM130.911 48.5767C130.57 48.5767 130.204 48.5137 129.811 48.3878C129.426 48.2545 129.092 48.036 128.811 47.7322L129.144 46.4211C129.352 46.7693 129.618 47.0471 129.944 47.2545C130.27 47.4545 130.618 47.5545 130.989 47.5545C131.344 47.5545 131.611 47.4693 131.789 47.2989C131.967 47.1211 132.055 46.9063 132.055 46.6545C132.055 46.3656 131.959 46.1545 131.767 46.0211C131.581 45.8878 131.415 45.7952 131.267 45.7434L130.367 45.3989C130.204 45.3322 130.007 45.236 129.778 45.11C129.548 44.9767 129.348 44.7878 129.178 44.5434C129.007 44.2989 128.922 43.9804 128.922 43.5878C128.922 43.2322 129.007 42.9063 129.178 42.61C129.348 42.3137 129.589 42.0804 129.9 41.91C130.211 41.7322 130.578 41.6434 131 41.6434C131.333 41.6434 131.681 41.7026 132.044 41.8211C132.407 41.9397 132.715 42.1397 132.967 42.4211L132.633 43.7322C132.455 43.4063 132.215 43.1471 131.911 42.9545C131.607 42.7619 131.292 42.6656 130.967 42.6656C130.663 42.6656 130.422 42.7508 130.244 42.9211C130.074 43.0915 129.989 43.2878 129.989 43.51C129.989 43.6878 130.048 43.8471 130.167 43.9878C130.285 44.1285 130.463 44.2434 130.7 44.3322L131.6 44.6767C131.763 44.736 131.963 44.8322 132.2 44.9656C132.444 45.0989 132.659 45.2915 132.844 45.5434C133.029 45.7952 133.122 46.136 133.122 46.5656C133.122 47.1656 132.911 47.6508 132.489 48.0211C132.074 48.3915 131.548 48.5767 130.911 48.5767Z" fill="white"/>
</svg>
