<svg width="51" height="51" viewBox="0 0 51 51" fill="none" xmlns="http://www.w3.org/2000/svg">
<path d="M17.8526 5.82336C17.1246 6.08439 16.4147 6.39341 15.7276 6.74836C15.4796 6.87847 15.2362 7.01689 14.9976 7.16336L14.9526 7.19336L14.9376 7.20336L14.9326 7.20586L14.9301 7.20836C14.6539 7.39202 14.462 7.67786 14.3966 8.003C14.3312 8.32814 14.3976 8.66595 14.5813 8.94211C14.765 9.21826 15.0508 9.41015 15.376 9.47555C15.7011 9.54096 16.0389 9.47452 16.3151 9.29086L16.3326 9.27836L16.4351 9.21586C16.5317 9.15586 16.6817 9.07252 16.8851 8.96586C17.2901 8.75336 17.9026 8.46586 18.7051 8.17336C20.925 7.38215 23.2659 6.98451 25.6226 6.99836C28.5801 6.99836 30.9351 7.58836 32.5401 8.17336C33.3401 8.46586 33.9551 8.75336 34.3601 8.96586C34.5466 9.0642 34.7301 9.16841 34.9101 9.27836L34.9301 9.28836C35.0665 9.38509 35.2209 9.45346 35.3843 9.48943C35.5476 9.52539 35.7165 9.52822 35.8809 9.49774C36.0453 9.46725 36.202 9.40409 36.3416 9.31197C36.4811 9.21986 36.6008 9.10067 36.6935 8.96147C36.7862 8.82227 36.85 8.66588 36.8812 8.50157C36.9123 8.33726 36.9102 8.16837 36.8749 8.0049C36.8396 7.84143 36.7719 7.6867 36.6757 7.54988C36.5796 7.41306 36.4569 7.29692 36.3151 7.20836L36.3126 7.20586L36.3076 7.20336L36.2926 7.19336L36.2451 7.16336L36.0901 7.06586C35.9012 6.955 35.7095 6.84913 35.5151 6.74836C34.8288 6.39351 34.1197 6.0845 33.3926 5.82336C30.8994 4.93296 28.2699 4.48456 25.6226 4.49836C22.9752 4.48456 20.3457 4.93296 17.8526 5.82336ZM17.8526 45.6734C19.6851 46.3409 22.3276 46.9984 25.6226 46.9984C28.2699 47.0121 30.8994 46.5638 33.3926 45.6734C34.3101 45.3409 35.0251 45.0034 35.5176 44.7484C35.7646 44.6182 36.0073 44.4798 36.2451 44.3334L36.2926 44.3034L36.3076 44.2934L36.3126 44.2909C36.3126 44.2909 36.3151 44.2884 35.6226 43.2484L36.3151 44.2884C36.5803 44.1003 36.7618 43.8162 36.8211 43.4965C36.8804 43.1768 36.8127 42.8465 36.6325 42.5759C36.4523 42.3052 36.1737 42.1154 35.8558 42.0468C35.538 41.9782 35.2059 42.0361 34.9301 42.2084L34.9101 42.2209L34.8101 42.2809C34.6622 42.368 34.5122 42.4514 34.3601 42.5309C33.9551 42.7434 33.3426 43.0309 32.5401 43.3234C30.3202 44.1146 27.9792 44.5122 25.6226 44.4984C23.2659 44.5122 20.925 44.1146 18.7051 43.3234C18.0816 43.0997 17.4736 42.8349 16.8851 42.5309C16.6985 42.4325 16.515 42.3283 16.3351 42.2184L16.3151 42.2059C16.1783 42.1149 16.025 42.0518 15.8639 42.0201C15.7027 41.9884 15.5369 41.9888 15.376 42.0212C15.215 42.0535 15.0619 42.1173 14.9256 42.2089C14.7892 42.3004 14.6722 42.4179 14.5813 42.5546C14.4904 42.6913 14.4273 42.8447 14.3956 43.0058C14.3639 43.1669 14.3642 43.3327 14.3966 43.4937C14.429 43.6547 14.4928 43.8077 14.5843 43.9441C14.6758 44.0804 14.7933 44.1974 14.9301 44.2884L14.9326 44.2909L14.9376 44.2934L14.9526 44.3034L14.9976 44.3334L15.1551 44.4284C15.2884 44.5117 15.4801 44.6175 15.7301 44.7459C16.2201 45.0034 16.9351 45.3434 17.8526 45.6734ZM6.87256 18.2484V33.2484C6.87256 34.5744 7.39934 35.8462 8.33702 36.7839C9.27471 37.7216 10.5465 38.2484 11.8726 38.2484H26.8726C28.1986 38.2484 29.4704 37.7216 30.4081 36.7839C31.3458 35.8462 31.8726 34.5744 31.8726 33.2484V18.2484C31.8726 16.9223 31.3458 15.6505 30.4081 14.7128C29.4704 13.7751 28.1986 13.2484 26.8726 13.2484H11.8726C10.5465 13.2484 9.27471 13.7751 8.33702 14.7128C7.39934 15.6505 6.87256 16.9223 6.87256 18.2484ZM34.3726 29.6234L41.3151 35.2659C41.5901 35.4894 41.9228 35.6304 42.2747 35.6725C42.6266 35.7146 42.9832 35.6561 43.3033 35.5038C43.6233 35.3515 43.8936 35.1117 44.0828 34.812C44.2721 34.5124 44.3725 34.1653 44.3726 33.8109V17.6859C44.3725 17.3315 44.2721 16.9843 44.0828 16.6847C43.8936 16.385 43.6233 16.1452 43.3033 15.9929C42.9832 15.8406 42.6266 15.7821 42.2747 15.8242C41.9228 15.8664 41.5901 16.0073 41.3151 16.2309L34.3726 21.8734V29.6234Z" fill="white"/>
</svg>
