<svg width="33" height="32" viewBox="0 0 33 32" fill="none" xmlns="http://www.w3.org/2000/svg">
<path d="M6.11719 3.55556C6.11719 1.59188 7.70906 0 9.67274 0H23.895C25.8587 0 27.4505 1.59188 27.4505 3.55556V28.4444C27.4505 30.4082 25.8587 32 23.895 32H9.67274C7.70906 32 6.11719 30.4082 6.11719 28.4444V3.55556ZM23.895 3.55556H9.67274V28.4444H23.895V3.55556Z" fill="#FF0073"/>
<path d="M18.5614 24.8872C18.5614 25.869 17.7655 26.6649 16.7836 26.6649C15.8018 26.6649 15.0059 25.869 15.0059 24.8872C15.0059 23.9053 15.8018 23.1094 16.7836 23.1094C17.7655 23.1094 18.5614 23.9053 18.5614 24.8872Z" fill="#FF0073"/>
</svg>
