<svg width="33" height="32" viewBox="0 0 33 32" fill="none" xmlns="http://www.w3.org/2000/svg">
<path d="M16.7831 0C17.8877 0 18.7831 0.89544 18.7831 2V30C18.7831 31.1046 17.8877 32 16.7831 32C15.6785 32 14.7831 31.1046 14.7831 30V2C14.7831 0.89544 15.6785 0 16.7831 0ZM26.783 8C27.8876 8 28.783 8.89544 28.783 10V30C28.783 31.1046 27.8876 32 26.783 32C25.6784 32 24.7831 31.1046 24.7831 30V10C24.7831 8.89544 25.6784 8 26.783 8ZM6.78319 16C7.88774 16 8.78317 16.8954 8.78317 18V30C8.78317 31.1046 7.88774 32 6.78319 32C5.67864 32 4.7832 31.1046 4.7832 30V18C4.7832 16.8954 5.67864 16 6.78319 16Z" fill="#FF0073"/>
</svg>
