<svg width="25" height="24" viewBox="0 0 25 24" fill="none" xmlns="http://www.w3.org/2000/svg">
<path d="M19.0938 0H6.34375C3.23715 0 0.71875 2.5184 0.71875 5.625V18.375C0.71875 21.4816 3.23715 24 6.34375 24H19.0938C22.2004 24 24.7188 21.4816 24.7188 18.375V5.625C24.7188 2.5184 22.2004 0 19.0938 0Z" fill="#F4F2ED"/>
<path d="M12.1047 2.62995C12.0644 2.6336 11.936 2.64645 11.8205 2.65554C9.15747 2.89563 6.66297 4.33263 5.083 6.5412C4.20334 7.76923 3.64056 9.16216 3.42803 10.6377C3.35294 11.1528 3.34375 11.3049 3.34375 12.0032C3.34375 12.7015 3.35294 12.8537 3.42812 13.3686C3.93756 16.8895 6.44313 19.8478 9.84119 20.9438C10.4497 21.1399 11.0912 21.2737 11.8206 21.3544C12.1048 21.3855 13.3327 21.3855 13.6169 21.3544C14.876 21.215 15.9427 20.9035 16.9948 20.3664C17.156 20.284 17.1872 20.262 17.1652 20.2437C17.1506 20.2326 16.4632 19.3107 15.6385 18.1964L14.1392 16.1711L12.2605 13.3907C11.2268 11.8621 10.3764 10.612 10.369 10.612C10.3617 10.6102 10.3544 11.8456 10.3507 13.354C10.3452 15.9951 10.3434 16.1014 10.3104 16.1637C10.2628 16.2535 10.2261 16.2902 10.1491 16.3306C10.0905 16.3598 10.0391 16.3654 9.76234 16.3654H9.44528L9.36091 16.3122C9.30867 16.2795 9.26623 16.2333 9.23809 16.1784L9.19966 16.0959L9.20341 12.4211L9.20884 8.74441L9.26566 8.67288C9.295 8.63444 9.35734 8.58494 9.40131 8.56113C9.47641 8.52448 9.50575 8.52082 9.82281 8.52082C10.1968 8.52082 10.259 8.53544 10.3563 8.64176C10.3837 8.6711 11.4009 10.2034 12.618 12.049C13.8501 13.9172 15.083 15.7848 16.3166 17.652L17.8012 19.9009L17.8764 19.8514C18.5417 19.4189 19.2455 18.803 19.8027 18.1615C20.9885 16.7997 21.7529 15.1392 22.0095 13.3686C22.0846 12.8537 22.0938 12.7015 22.0938 12.0032C22.0938 11.3048 22.0846 11.1528 22.0095 10.6377C21.4999 7.11682 18.9944 4.15863 15.5963 3.0626C14.997 2.86826 14.3592 2.73448 13.6443 2.65385C13.4684 2.63548 12.2568 2.61541 12.1048 2.63004M15.9427 8.30088C16.0307 8.34485 16.1022 8.42913 16.1279 8.51707C16.1425 8.56479 16.1462 9.58385 16.1425 11.8804L16.137 15.1758L15.556 14.285L14.9732 13.3943V10.9988C14.9732 9.45007 14.9805 8.57941 14.9914 8.53723C15.0208 8.43466 15.0849 8.35404 15.1729 8.30632C15.248 8.26788 15.2756 8.26413 15.5633 8.26413C15.8346 8.26413 15.8823 8.26788 15.9427 8.30088Z" fill="black"/>
</svg>
