<svg width="25" height="24" viewBox="0 0 25 24" fill="none" xmlns="http://www.w3.org/2000/svg">
<g clip-path="url(#clip0_3886_11678)">
<path d="M4.96881 0.299805H20.4687C22.8188 0.299805 24.7188 2.19974 24.7188 4.54987V19.4497C24.7188 21.7999 22.8188 23.6998 20.4687 23.6998H4.96881C2.61869 23.6998 0.71875 21.7999 0.71875 19.4497V4.54987C0.71875 2.19974 2.61869 0.299805 4.96881 0.299805Z" fill="#001E36"/>
<path d="M9.31872 6.25C9.01872 6.25 8.71871 6.25 8.40878 6.26013C8.09865 6.27006 7.80859 6.27006 7.53859 6.28019C7.26859 6.29012 7.01865 6.29012 6.77865 6.30006C6.54859 6.31 6.38865 6.31 6.21859 6.31C6.14865 6.31 6.11865 6.34994 6.11865 6.42006V16.7101C6.11865 16.8001 6.15859 16.8402 6.23865 16.8402H8.17871C8.24865 16.8301 8.29872 16.7701 8.28859 16.7001V13.4901C8.47853 13.4901 8.61859 13.4901 8.71871 13.5001C8.81865 13.51 8.97859 13.51 9.21859 13.51C10.0387 13.51 10.7887 13.42 11.4686 13.1701C12.1187 12.9301 12.6787 12.5101 13.0787 11.95C13.4787 11.39 13.6787 10.68 13.6787 9.82C13.6787 9.37 13.5988 8.94006 13.4488 8.52006C13.2898 8.09217 13.0408 7.7034 12.7187 7.38006C12.3384 7.01062 11.8806 6.73047 11.3786 6.55994C10.8185 6.34994 10.1387 6.25 9.31872 6.25ZM9.54184 8.21969C9.89809 8.22644 10.245 8.28869 10.5686 8.41994C10.8587 8.53 11.0987 8.73006 11.2687 8.98994C11.4282 9.25889 11.508 9.56763 11.4988 9.88019C11.4988 10.3201 11.3987 10.6602 11.1887 10.9101C10.9685 11.1601 10.6886 11.3502 10.3687 11.4402C9.99859 11.5602 9.60859 11.62 9.21859 11.62H8.68853C8.56853 11.62 8.43878 11.6101 8.29871 11.6001V8.24013C8.36865 8.23 8.50871 8.22006 8.70878 8.23019C8.89871 8.22006 9.12859 8.22006 9.38865 8.22006C9.4399 8.21881 9.49096 8.21869 9.54184 8.21969ZM17.9287 8.73025C17.2187 8.73025 16.6286 8.84013 16.1587 9.08013C15.7288 9.28019 15.3587 9.60006 15.1087 10C14.8888 10.3701 14.7686 10.78 14.7686 11.2101C14.76 11.5639 14.8391 11.9143 14.9987 12.2301C15.1857 12.5664 15.4454 12.8568 15.7588 13.0801C16.1987 13.3809 16.676 13.623 17.1787 13.8001C17.6687 13.99 17.9987 14.14 18.1588 14.2699C18.3187 14.4001 18.3988 14.53 18.3988 14.6701C18.3988 14.8501 18.2887 15.0201 18.1288 15.0901C17.9488 15.1801 17.6788 15.2301 17.2987 15.2301C16.8988 15.2301 16.4987 15.1801 16.1186 15.0801C15.6822 14.9827 15.2638 14.8173 14.8787 14.5902C14.8487 14.5701 14.8187 14.5602 14.7887 14.5803C14.7587 14.6001 14.7487 14.6401 14.7487 14.6701V16.4101C14.7388 16.4901 14.7887 16.5601 14.8588 16.6C15.1831 16.7515 15.5261 16.8591 15.8788 16.9201C16.3288 17.0101 16.7786 17.05 17.2385 17.05C17.9585 17.05 18.5587 16.9401 19.0487 16.7301C19.4987 16.5501 19.8887 16.2402 20.1686 15.8401C20.4308 15.4467 20.5668 14.9828 20.5586 14.5101C20.5685 14.1531 20.4895 13.7992 20.3287 13.4802C20.1386 13.1401 19.8686 12.8601 19.5386 12.6501C19.0558 12.347 18.5389 12.1019 17.9987 11.92C17.7574 11.8201 17.5205 11.71 17.2886 11.59C17.1587 11.5201 17.0387 11.4301 16.9487 11.32C16.8887 11.2399 16.8487 11.1501 16.8487 11.0601C16.8487 10.9701 16.8787 10.8702 16.9286 10.7901C16.9987 10.6902 17.1086 10.6201 17.2385 10.5901C17.4287 10.5402 17.6387 10.51 17.8385 10.5199C18.2186 10.5199 18.5885 10.57 18.9587 10.6501C19.2988 10.72 19.6187 10.8301 19.9187 10.9902C19.9586 11.0101 20.0087 11.0101 20.0987 10.9902C20.1143 10.9786 20.127 10.9635 20.1357 10.9461C20.1444 10.9287 20.1488 10.9095 20.1487 10.8901V9.26013C20.1487 9.22 20.1386 9.18006 20.1287 9.14013C20.1086 9.10019 20.0687 9.06006 20.0287 9.05013C19.7529 8.9374 19.4639 8.86009 19.1687 8.82006C18.758 8.76028 18.3437 8.73039 17.9287 8.73025Z" fill="#31A8FF"/>
</g>
<defs>
<clipPath id="clip0_3886_11678">
<rect width="24" height="24" fill="white" transform="translate(0.71875)"/>
</clipPath>
</defs>
</svg>
