<svg width="156" height="98" viewBox="0 0 156 98" fill="none" xmlns="http://www.w3.org/2000/svg">
<path fill-rule="evenodd" clip-rule="evenodd" d="M69.0497 52.8598C60.0095 50.1658 33.9328 38.6528 63.4847 0.390625C79.4647 11.297 85.6223 20.8932 86.7624 28.8229C79.1187 31.5758 73.8564 36.928 74.5122 46.6114C70.349 36.6542 67.0828 22.883 65.6816 14.2967C64.979 24.3269 66.4504 42.1672 69.0497 52.8598Z" fill="#090909"/>
<path fill-rule="evenodd" clip-rule="evenodd" d="M79.2809 55.2645C77.0804 49.1132 72.509 29.1153 106.666 30.2177C107.668 61.6325 91.1229 60.4731 83.6092 58.3525C86.7196 52.2637 90.7236 46.7684 95.7903 42.1287C89.5747 45.5894 84.0396 49.9794 79.2809 55.2645Z" fill="#090909"/>
<path d="M14.1882 76.9299H17.9263C20.0031 76.9299 21.0415 75.9237 21.0415 73.9111C21.0415 72.8668 20.7819 72.1121 20.2627 71.6469C19.7435 71.1817 18.9647 70.9492 17.9263 70.9492H10.1669V77.7843C10.7521 77.4426 11.4129 77.2053 12.1492 77.0723C12.6967 76.9774 13.3764 76.9299 14.1882 76.9299ZM10.1669 89.0909H7.08008V67.8448H17.9263C19.1724 67.8448 20.258 68.0869 21.1831 68.5711C22.1081 69.0552 22.8256 69.753 23.3353 70.6644C23.8451 71.5757 24.0999 72.6532 24.0999 73.8968C24.0999 75.1405 23.8451 76.2274 23.3353 77.1578C22.8256 78.0881 22.1034 78.8049 21.1689 79.308C20.2344 79.8112 19.1535 80.0627 17.9263 80.0627H14.1882C12.5646 80.0627 11.2241 80.3475 10.1669 80.9171V89.0909ZM38.5328 89.575C36.5505 89.575 34.8466 89.2285 33.4212 88.5355C31.9958 87.8425 30.9102 86.841 30.1645 85.5309C29.4188 84.2208 29.0459 82.6544 29.0459 80.8317V67.8448H32.1044V80.8317C32.1044 82.6544 32.6613 84.0499 33.7752 85.0182C34.8891 85.9866 36.475 86.4707 38.5328 86.4707C40.5907 86.4707 42.1766 85.9866 43.2905 85.0182C44.4044 84.0499 44.9613 82.6544 44.9613 80.8317V67.8448H48.0198V80.8317C48.0198 82.6544 47.6469 84.2208 46.9012 85.5309C46.1554 86.841 45.0699 87.8425 43.6445 88.5355C42.2191 89.2285 40.5152 89.575 38.5328 89.575ZM57.7517 70.9492V78.0122C58.3369 77.6704 58.9883 77.4426 59.7057 77.3287C60.2343 77.2337 60.914 77.1863 61.7447 77.1863H65.766C66.8799 77.1863 67.7484 76.9299 68.3714 76.4173C69.0322 75.8667 69.3626 75.0408 69.3626 73.9396C69.3626 72.8953 69.0133 72.1168 68.3147 71.6042C67.7106 71.1675 66.861 70.9492 65.766 70.9492H57.7517ZM66.7855 85.7302L64.2085 80.2906H61.7447C60.9706 80.2906 60.291 80.338 59.7057 80.433C58.9883 80.5659 58.3369 80.7937 57.7517 81.1165V89.0909H54.6649V67.8448H65.766C67.0687 67.8448 68.2203 68.0917 69.221 68.5853C70.2216 69.079 70.9956 69.7815 71.5431 70.6928C72.1284 71.6612 72.421 72.8004 72.421 74.1104C72.421 75.7053 71.9962 77.0154 71.1467 78.0407C70.2971 79.0659 69.0982 79.7779 67.5501 80.1767L69.1926 83.5658C69.6646 84.2683 70.0328 84.7619 70.2971 85.0467C70.618 85.4075 70.9248 85.6495 71.2175 85.773C71.5101 85.8964 71.8924 85.9581 72.3644 85.9581H72.6759L73.3556 85.9296V89.0909C72.2606 89.0909 71.4487 89.0529 70.9201 88.977C70.0328 88.8251 69.2776 88.5308 68.6546 88.0941C67.9183 87.5625 67.2953 86.7745 66.7855 85.7302ZM82.1813 89.0909H79.1511V67.8448H82.1813V89.0909ZM104.827 70.9776H97.3788V89.0909H94.3769V70.9776H86.844V67.8448H104.827V70.9776ZM116.484 77.1863C117.749 75.8572 118.891 74.3762 119.911 72.7434C120.93 71.1105 121.742 69.4777 122.346 67.8448H125.886C124.923 70.1043 123.753 72.2687 122.375 74.3383C121.129 76.2179 119.675 78.0691 118.014 79.8919V89.0909H114.955V79.8919C113.294 78.0691 111.84 76.2179 110.594 74.3383C109.216 72.2687 108.045 70.1043 107.082 67.8448H110.622C111.226 69.4777 112.038 71.1105 113.058 72.7434C114.077 74.3762 115.219 75.8572 116.484 77.1863ZM137.006 70.0948L135.845 67.4746H139.243L149.41 89.0909H145.955L144.567 85.9866H138.139C136.93 85.9866 135.845 86.1005 134.882 86.3283C134.032 86.5372 133.324 86.8125 132.758 87.1542C132.248 87.458 131.908 87.7713 131.739 88.0941L131.2 89.0909H127.859L137.006 70.0948ZM139.271 82.8538H143.179L138.563 73.8826L133.891 84.0499C134.306 83.6892 134.939 83.4044 135.788 83.1955C136.751 82.9677 137.912 82.8538 139.271 82.8538Z" fill="#090909"/>
</svg>
