<svg width="25" height="25" viewBox="0 0 25 25" fill="none" xmlns="http://www.w3.org/2000/svg">
<path d="M18.7041 0.58252H5.9541C2.8475 0.58252 0.329102 3.10092 0.329102 6.20752V18.9575C0.329102 22.0641 2.8475 24.5825 5.9541 24.5825H18.7041C21.8107 24.5825 24.3291 22.0641 24.3291 18.9575V6.20752C24.3291 3.10092 21.8107 0.58252 18.7041 0.58252Z" fill="#242938"/>
<path d="M12.2615 3.30127C7.50163 3.30127 7.79882 5.36546 7.79882 5.36546L7.80416 7.50389H12.3464V8.14608H5.99995C5.99995 8.14608 2.9541 7.80052 2.9541 12.6032C2.9541 17.406 5.61257 17.2358 5.61257 17.2358H7.1992V15.0071C7.1992 15.0071 7.1137 12.3486 9.81529 12.3486H14.3204C14.3204 12.3486 16.8515 12.3895 16.8515 9.9023V5.78996C16.8515 5.78996 17.2358 3.30127 12.2615 3.30127ZM9.75688 4.7393C9.86423 4.73921 9.97053 4.76029 10.0697 4.80133C10.1689 4.84237 10.259 4.90256 10.3349 4.97847C10.4108 5.05437 10.471 5.14449 10.5121 5.24368C10.5531 5.34287 10.5742 5.44918 10.5741 5.55652C10.5742 5.66385 10.5531 5.77015 10.512 5.86933C10.471 5.96851 10.4108 6.05862 10.3349 6.13451C10.259 6.21041 10.1689 6.27059 10.0697 6.31162C9.97052 6.35265 9.86422 6.37373 9.75688 6.37364C9.64956 6.37372 9.54327 6.35263 9.4441 6.3116C9.34492 6.27056 9.25482 6.21037 9.17892 6.13448C9.10303 6.05859 9.04285 5.96848 9.00181 5.86931C8.96077 5.77014 8.93968 5.66385 8.93976 5.55652C8.93967 5.44918 8.96075 5.34289 9.00178 5.2437C9.04281 5.14452 9.103 5.0544 9.17889 4.9785C9.25478 4.9026 9.3449 4.8424 9.44407 4.80136C9.54325 4.76031 9.64955 4.73923 9.75688 4.7393Z" fill="url(#paint0_linear_3886_10423)"/>
<path d="M12.3968 21.9533C17.1567 21.9533 16.8595 19.8893 16.8595 19.8893L16.8541 17.7507H12.3118V17.1086H18.6583C18.6583 17.1086 21.7042 17.4541 21.7042 12.6513C21.7042 7.84847 19.0457 8.01881 19.0457 8.01881H17.4591V10.2475C17.4591 10.2475 17.5446 12.906 14.843 12.906H10.3379C10.3379 12.906 7.80669 12.865 7.80669 15.3522V19.4647C7.80669 19.4647 7.42241 21.9533 12.3968 21.9533ZM14.9014 20.5153C14.7941 20.5154 14.6878 20.4943 14.5886 20.4533C14.4894 20.4123 14.3993 20.3521 14.3234 20.2762C14.2475 20.2003 14.1873 20.1102 14.1462 20.011C14.1052 19.9118 14.0841 19.8055 14.0842 19.6982C14.0841 19.5908 14.1052 19.4845 14.1462 19.3854C14.1873 19.2862 14.2474 19.196 14.3234 19.1201C14.3993 19.0442 14.4894 18.984 14.5886 18.943C14.6878 18.902 14.7941 18.8809 14.9014 18.881C15.0087 18.8809 15.1151 18.902 15.2142 18.943C15.3134 18.984 15.4036 19.0442 15.4795 19.1201C15.5554 19.196 15.6156 19.2862 15.6566 19.3854C15.6976 19.4845 15.7187 19.5908 15.7186 19.6982C15.7187 19.8055 15.6976 19.9118 15.6566 20.011C15.6155 20.1102 15.5553 20.2003 15.4794 20.2762C15.4035 20.3521 15.3134 20.4123 15.2142 20.4533C15.115 20.4943 15.0087 20.5154 14.9014 20.5153Z" fill="url(#paint1_linear_3886_10423)"/>
<defs>
<linearGradient id="paint0_linear_3886_10423" x1="4.75598" y1="4.97902" x2="14.0478" y2="14.1781" gradientUnits="userSpaceOnUse">
<stop stop-color="#387EB8"/>
<stop offset="1" stop-color="#366994"/>
</linearGradient>
<linearGradient id="paint1_linear_3886_10423" x1="10.4594" y1="10.8859" x2="20.4378" y2="20.3187" gradientUnits="userSpaceOnUse">
<stop stop-color="#FFE052"/>
<stop offset="1" stop-color="#FFC331"/>
</linearGradient>
</defs>
</svg>
