<svg width="25" height="24" viewBox="0 0 25 24" fill="none" xmlns="http://www.w3.org/2000/svg">
<path d="M19.0938 0H6.34375C3.23715 0 0.71875 2.5184 0.71875 5.625V18.375C0.71875 21.4816 3.23715 24 6.34375 24H19.0938C22.2004 24 24.7188 21.4816 24.7188 18.375V5.625C24.7188 2.5184 22.2004 0 19.0938 0Z" fill="#242938"/>
<path d="M12.7187 13.7768C13.6847 13.7768 14.4677 12.9937 14.4677 12.0278C14.4677 11.0619 13.6847 10.2788 12.7187 10.2788C11.7527 10.2788 10.9697 11.0619 10.9697 12.0278C10.9697 12.9937 11.7528 13.7768 12.7187 13.7768Z" fill="#00D8FF"/>
<path d="M12.7189 8.47168C15.0672 8.47168 17.2487 8.80862 18.8935 9.37496C20.8753 10.0572 22.0938 11.0913 22.0938 12.0278C22.0938 13.0036 20.8024 14.1023 18.6742 14.8074C17.0653 15.3405 14.948 15.6187 12.7189 15.6187C10.4335 15.6187 8.26928 15.3575 6.64216 14.8015C4.58359 14.0979 3.34375 12.9851 3.34375 12.0278C3.34375 11.0989 4.50719 10.0727 6.46112 9.39156C8.11206 8.81593 10.3473 8.47168 12.7186 8.47168H12.7189Z" stroke="#00D8FF" stroke-width="0.556938"/>
<path d="M9.62328 10.2598C10.7965 8.22562 12.1781 6.50419 13.4904 5.36231C15.0714 3.98634 16.5761 3.44747 17.3872 3.91519C18.2325 4.40269 18.5392 6.07031 18.0868 8.26612C17.7451 9.92615 16.9282 11.8992 15.8145 13.8303C14.6727 15.8101 13.3654 17.5544 12.071 18.6858C10.4331 20.1175 8.84956 20.6357 8.02034 20.1575C7.21568 19.6938 6.908 18.1731 7.29406 16.1401C7.62021 14.4223 8.43875 12.314 9.6229 10.2598H9.62328Z" stroke="#00D8FF" stroke-width="0.556938"/>
<path d="M9.62619 13.8355C8.44972 11.8036 7.64872 9.74649 7.31441 8.0393C6.91194 5.98233 7.19647 4.40968 8.00694 3.94055C8.85153 3.45155 10.4493 4.01874 12.1258 5.5073C13.3933 6.63268 14.6948 8.32552 15.8116 10.2547C16.9567 12.2326 17.8149 14.2366 18.1487 15.9229C18.5712 18.0571 18.2293 19.6876 17.4008 20.1672C16.597 20.6326 15.1259 20.1399 13.5574 18.7901C12.2322 17.6497 10.8143 15.8877 9.62619 13.8355Z" stroke="#00D8FF" stroke-width="0.556938"/>
</svg>
