<svg width="81" height="80" viewBox="0 0 81 80" fill="none" xmlns="http://www.w3.org/2000/svg">
<path d="M72.3765 8.40729C72.3499 8.27906 72.2873 8.16109 72.1959 8.06725C72.1046 7.97342 71.9883 7.90762 71.8609 7.87761C63.364 5.79948 43.7359 13.2042 33.0906 23.8417C31.1934 25.7234 29.4634 27.7665 27.9202 29.9479C24.639 29.651 21.3577 29.901 18.564 31.1198C10.6749 34.5885 8.37962 43.6479 7.73899 47.537C7.70428 47.7501 7.71911 47.9683 7.78232 48.1747C7.84553 48.3812 7.95543 48.5703 8.1035 48.7274C8.25157 48.8846 8.43383 49.0055 8.63616 49.0809C8.8385 49.1562 9.05546 49.184 9.27024 49.162L21.9374 47.7713C21.9461 48.7268 22.0035 49.6811 22.1093 50.6307C22.1754 51.2871 22.4683 51.8998 22.9374 52.3635L27.8421 57.2682C28.3062 57.7377 28.9196 58.0306 29.5765 58.0963C30.5204 58.2016 31.469 58.259 32.4187 58.2682L31.0296 70.9245C31.0079 71.139 31.0359 71.3556 31.1112 71.5576C31.1866 71.7596 31.3074 71.9415 31.4644 72.0894C31.6213 72.2372 31.8101 72.347 32.0162 72.4103C32.2223 72.4735 32.4402 72.4885 32.6531 72.4541C36.5437 71.8291 45.6218 69.5338 49.0702 61.6463C50.289 58.8495 50.539 55.5854 50.2577 52.3198C52.4456 50.778 54.4946 49.048 56.3812 47.1495C67.0656 36.5245 74.4234 17.3276 72.3765 8.40729ZM46.8843 33.3854C45.9511 32.4524 45.3155 31.2636 45.0579 29.9693C44.8004 28.6751 44.9324 27.3335 45.4373 26.1143C45.9423 24.8951 46.7974 23.853 47.8946 23.1198C48.9919 22.3866 50.2819 21.9953 51.6015 21.9953C52.9211 21.9953 54.2111 22.3866 55.3083 23.1198C56.4056 23.853 57.2607 24.8951 57.7656 26.1143C58.2706 27.3335 58.4026 28.6751 58.1451 29.9693C57.8875 31.2636 57.2519 32.4524 56.3187 33.3854C55.6997 34.0057 54.9644 34.4979 54.155 34.8336C53.3455 35.1694 52.4778 35.3423 51.6015 35.3423C50.7252 35.3423 49.8574 35.1694 49.048 34.8336C48.2386 34.4979 47.5033 34.0057 46.8843 33.3854Z" stroke="#FF0073" stroke-width="5" stroke-linecap="round" stroke-linejoin="round"/>
<path d="M17.35 55C15.7924 55.1912 14.3433 55.8973 13.2328 57.0062C10.4797 59.7687 10.2188 70 10.2188 70C10.2188 70 20.4562 69.7391 23.2109 66.9828C24.3243 65.8741 25.0317 64.4226 25.2188 62.8625" stroke="#FF0073" stroke-width="5" stroke-linecap="round" stroke-linejoin="round"/>
</svg>
