<svg width="34" height="44" viewBox="0 0 34 44" fill="none" xmlns="http://www.w3.org/2000/svg">
<path d="M2.7925 32.4867C3.1725 37.2687 6.9605 41.3307 11.8425 41.9327C13.6385 42.1527 15.4625 42.3087 17.3125 42.3087C19.1625 42.3087 20.9865 42.1527 22.7825 41.9327C27.6625 41.3307 31.4505 37.2687 31.8305 32.4867C32.0945 29.1727 32.3125 25.7727 32.3125 22.3087C32.3125 18.8447 32.0925 15.4447 31.8325 12.1307C31.4525 7.34865 27.6645 3.28665 22.7825 2.68465C20.9865 2.46465 19.1625 2.30865 17.3125 2.30865C15.4625 2.30865 13.6385 2.46465 11.8425 2.68465C6.9625 3.28465 3.1725 7.34865 2.7945 12.1307C2.5305 15.4447 2.3125 18.8447 2.3125 22.3087C2.3125 25.7727 2.5305 29.1727 2.7925 32.4867Z" stroke="#FF0073" stroke-width="3" stroke-linecap="round" stroke-linejoin="round"/>
<path fill-rule="evenodd" clip-rule="evenodd" d="M14.4013 16.0755C14.9147 15.5423 15.3746 15.0281 15.7792 14.5722L15.8125 14.5346V22.081C15.3952 21.6237 14.909 21.0988 14.3815 20.5549C13.8047 19.9602 12.8551 19.9457 12.2604 20.5224C11.6657 21.0992 11.6512 22.0488 12.2279 22.6435C13.0123 23.4522 13.5451 24.044 14.0036 24.5532L14.0036 24.5532C14.2864 24.8673 14.5409 25.15 14.8088 25.4328C15.1079 25.7487 15.4314 26.0694 15.7739 26.3114C16.1118 26.5502 16.5677 26.7839 17.1338 26.8073C17.8509 26.8719 18.4398 26.568 18.8147 26.3158C19.225 26.0398 19.6122 25.6666 19.9584 25.3045C20.2691 24.9796 20.6048 24.6008 20.9473 24.2144L21.09 24.0534C21.4906 23.6021 21.9167 23.1263 22.3853 22.6395C22.9599 22.0427 22.9418 21.0931 22.345 20.5186C21.7482 19.944 20.7987 19.962 20.2241 20.5588C19.7107 21.0921 19.2508 21.6063 18.8462 22.0621L18.8125 22.1001V14.5527C19.2292 15.0095 19.715 15.5341 20.2439 16.0795C20.8207 16.6742 21.7703 16.6887 22.365 16.112C22.9597 15.5352 22.9742 14.5856 22.3975 13.9909C21.6127 13.1817 21.0776 12.5872 20.6176 12.0761L20.6176 12.0761C20.3359 11.7632 20.0824 11.4815 19.817 11.201C19.518 10.885 19.1946 10.564 18.8522 10.3217C18.5141 10.0826 18.0575 9.84804 17.49 9.82501C16.773 9.76139 16.1844 10.0659 15.8097 10.3183C15.3999 10.5945 15.0129 10.9676 14.6668 11.3298C14.3566 11.6544 14.0212 12.0328 13.6792 12.4187L13.5353 12.5809C13.1348 13.0323 12.7087 13.5081 12.2401 13.9948C11.6655 14.5916 11.6835 15.5412 12.2803 16.1158C12.8771 16.6903 13.8267 16.6723 14.4013 16.0755Z" fill="#FF0073"/>
</svg>
