<svg width="33" height="32" viewBox="0 0 33 32" fill="none" xmlns="http://www.w3.org/2000/svg">
<g clip-path="url(#clip0_1307_8102)">
<path d="M16.7832 3.19999C15.8995 3.19999 15.1832 3.91633 15.1832 4.79998C15.1832 7.50758 11.9096 8.86354 9.99501 6.94899C9.37018 6.32415 8.35711 6.32415 7.73228 6.94899C7.10744 7.57382 7.10744 8.58689 7.73228 9.21172C9.64692 11.1263 8.29077 14.3999 5.5832 14.3999C4.69956 14.3999 3.9832 15.1163 3.9832 15.9999C3.9832 16.8836 4.69956 17.5999 5.5832 17.5999C8.29098 17.5999 9.64663 20.8737 7.73218 22.7881C7.10733 23.413 7.10733 24.426 7.73218 25.0509C8.35701 25.6757 9.37007 25.6757 9.99492 25.0509C11.9094 23.1364 15.1832 24.4922 15.1832 27.1999C15.1832 28.0836 15.8995 28.7999 16.7832 28.7999C17.6669 28.7999 18.3832 28.0836 18.3832 27.1999C18.3832 24.4922 21.6568 23.1362 23.5715 25.0508C24.1963 25.6757 25.2094 25.6757 25.8342 25.0508C26.459 24.426 26.459 23.413 25.8342 22.7881C23.9197 20.8737 25.2755 17.5999 27.9832 17.5999C28.8669 17.5999 29.5832 16.8836 29.5832 15.9999C29.5832 15.1163 28.8669 14.3999 27.9832 14.3999C25.2757 14.3999 23.9194 11.1264 25.8341 9.21175C26.4589 8.5869 26.4589 7.57385 25.8341 6.94901C25.2093 6.32418 24.1962 6.32418 23.5714 6.94901C21.6568 8.86362 18.3832 7.50747 18.3832 4.79998C18.3832 3.91633 17.6669 3.19999 16.7832 3.19999ZM11.9963 4.44323C12.1788 1.95887 14.2522 0 16.7832 0C19.3142 0 21.3877 1.95887 21.5701 4.44323C23.4558 2.81562 26.3072 2.89663 28.0968 4.68628C29.8866 6.47594 29.9675 9.32724 28.3398 11.213C30.8243 11.3955 32.7832 13.4689 32.7832 15.9999C32.7832 18.531 30.8243 20.6044 28.34 20.7868C29.9677 22.6725 29.8866 25.5239 28.097 27.3136C26.3072 29.1032 23.456 29.1842 21.5701 27.5565C21.3877 30.041 19.3142 31.9999 16.7832 31.9999C14.2522 31.9999 12.1787 30.041 11.9963 27.5565C10.1105 29.1842 7.25912 29.1032 5.46943 27.3136C3.67975 25.5239 3.59876 22.6725 5.22644 20.7868C2.74208 20.6044 0.783203 18.531 0.783203 15.9999C0.783203 13.4689 2.74213 11.3955 5.22655 11.213C3.59885 9.32724 3.67986 6.47592 5.46954 4.68625C7.2592 2.89659 10.1105 2.81559 11.9963 4.44323Z" fill="#FF0073"/>
<path d="M16.7828 12.8015C15.9342 12.8015 15.1203 13.1387 14.5201 13.7388C13.9199 14.339 13.5828 15.1529 13.5828 16.0015C13.5828 16.8502 13.9199 17.6641 14.5201 18.2642C15.1203 18.8644 15.9342 19.2015 16.7828 19.2015C17.6315 19.2015 18.4454 18.8644 19.0455 18.2642C19.6457 17.6641 19.9828 16.8502 19.9828 16.0015C19.9828 15.1529 19.6457 14.339 19.0455 13.7388C18.4454 13.1387 17.6315 12.8015 16.7828 12.8015ZM12.2573 11.4761C13.4576 10.2758 15.0854 9.60156 16.7828 9.60156C18.4803 9.60156 20.1081 10.2758 21.3083 11.4761C22.5086 12.6763 23.1828 14.3041 23.1828 16.0015C23.1828 17.699 22.5086 19.3268 21.3083 20.527C20.1081 21.7273 18.4803 22.4015 16.7828 22.4015C15.0854 22.4015 13.4576 21.7273 12.2573 20.527C11.0571 19.3268 10.3828 17.699 10.3828 16.0015C10.3828 14.3041 11.0571 12.6763 12.2573 11.4761Z" fill="#FF0073"/>
</g>
<defs>
<clipPath id="clip0_1307_8102">
<rect width="32" height="32" fill="white" transform="translate(0.783203)"/>
</clipPath>
</defs>
</svg>
