<svg width="25" height="25" viewBox="0 0 25 25" fill="none" xmlns="http://www.w3.org/2000/svg">
<g clip-path="url(#clip0_3886_11096)">
<path d="M21.6974 5.29533C21.6786 5.17533 21.5587 5.10892 21.4596 5.10161C20.7289 5.05347 19.9982 5.00572 19.2674 4.95835C19.2674 4.95835 17.8136 3.693 17.6541 3.55295C17.4944 3.41298 17.1826 3.45555 17.0616 3.48679C17.0438 3.49139 16.744 3.57251 16.248 3.70706C15.7624 2.48191 14.9053 1.35605 13.3975 1.35605C13.3559 1.35605 13.3131 1.35753 13.2702 1.35966C12.8414 0.862484 12.3102 0.646484 11.8514 0.646484C8.33907 0.646484 6.66104 4.49594 6.13492 6.4521C4.77011 6.82287 3.80054 7.08646 3.6767 7.12057C2.91489 7.33007 2.89079 7.35111 2.79076 7.98046C2.71548 8.45692 0.722168 21.9716 0.722168 21.9716L16.2545 24.523L24.6704 22.9269C24.6704 22.9269 21.716 5.41533 21.6974 5.29533ZM15.3895 3.93983L14.0753 4.29646C14.0757 4.21525 14.0762 4.13536 14.0762 4.04799C14.0762 3.28657 13.9556 2.6735 13.7622 2.1875C14.5391 2.27298 15.0565 3.04796 15.3895 3.93983ZM12.7985 2.33848C13.0145 2.81298 13.1549 3.49394 13.1549 4.41284C13.1549 4.45985 13.1545 4.50284 13.154 4.54632C12.2993 4.77843 11.3705 5.03043 10.4396 5.28325C10.9623 3.51481 11.942 2.66068 12.7985 2.33848ZM11.7549 1.47243C11.9065 1.47243 12.0593 1.51755 12.2054 1.60574C11.0798 2.07013 9.8732 3.23972 9.36367 5.57536L7.21811 6.15794C7.81492 4.37643 9.23214 1.47243 11.7549 1.47243Z" fill="#95BF46"/>
<path d="M21.4597 5.10188C20.729 5.05374 19.9983 5.00599 19.2676 4.95862C19.2676 4.95862 17.8138 3.69327 17.6542 3.55322C17.5945 3.50111 17.514 3.4744 17.4298 3.46289L16.2554 24.5231L24.6706 22.9271C24.6706 22.9271 21.7161 5.4156 21.6976 5.2956C21.6787 5.1756 21.5588 5.10919 21.4597 5.10188Z" fill="#5E8E3E"/>
<path d="M13.3975 9.17833L12.3598 11.8846C12.3598 11.8846 11.4506 11.4591 10.3361 11.4591C8.7022 11.4591 8.61998 12.3581 8.61998 12.5846C8.61998 13.8206 12.295 14.2942 12.295 17.1893C12.295 19.4671 10.6471 20.9338 8.42526 20.9338C5.75901 20.9338 4.39551 19.479 4.39551 19.479L5.10941 17.4111C5.10941 17.4111 6.51098 18.466 7.69363 18.466C8.46641 18.466 8.78076 17.9326 8.78076 17.5428C8.78076 15.9305 5.76576 15.8586 5.76576 13.2093C5.76576 10.9796 7.59126 8.82178 11.2762 8.82178C12.696 8.82178 13.3975 9.17833 13.3975 9.17833Z" fill="white"/>
</g>
<defs>
<clipPath id="clip0_3886_11096">
<rect width="24" height="24" fill="white" transform="translate(0.71875 0.58252)"/>
</clipPath>
</defs>
</svg>
