<svg width="33" height="32" viewBox="0 0 33 32" fill="none" xmlns="http://www.w3.org/2000/svg">
<g clip-path="url(#clip0_1307_8075)">
<path d="M3.11714 8.43359H8.70633V19.472H3.11714C2.76336 19.472 2.42407 19.3314 2.1739 19.0813C1.92374 18.8311 1.7832 18.4918 1.7832 18.138V9.76754C1.7832 9.41375 1.92374 9.07446 2.1739 8.8243C2.42407 8.57413 2.76336 8.43359 3.11714 8.43359Z" stroke="#FF0073" stroke-width="2.00091"/>
<path d="M8.70703 19.472V8.43358C8.70703 8.43358 11.6217 8.50028 16.4705 8.43358C21.3194 8.36689 26.9953 5.29882 30.6836 2.16405C30.7801 2.08153 30.8981 2.02826 31.0238 2.01048C31.1495 1.9927 31.2776 2.01116 31.3932 2.06369C31.5088 2.11622 31.6069 2.20063 31.6762 2.30702C31.7454 2.41341 31.7829 2.53735 31.7841 2.66428V25.2679C31.7838 25.3924 31.7487 25.5143 31.6828 25.6198C31.6168 25.7253 31.5227 25.8103 31.411 25.8651C31.2993 25.9199 31.1744 25.9424 31.0506 25.93C30.9268 25.9176 30.8089 25.8708 30.7103 25.7948C28.3359 23.9273 22.4266 19.7521 16.704 19.5787C13.3558 19.472 10.6479 19.472 8.70703 19.472Z" stroke="#FF0073" stroke-width="2.00091"/>
<path d="M10.9738 30.0053H7.77239C7.41861 30.0053 7.07932 29.8647 6.82915 29.6146C6.57899 29.3644 6.43845 29.0251 6.43845 28.6713L5.77148 19.4805H11.6408L12.3078 28.6713C12.3078 29.0251 12.1672 29.3644 11.9171 29.6146C11.6669 29.8647 11.3276 30.0053 10.9738 30.0053Z" stroke="#FF0073" stroke-width="2.00091"/>
</g>
<defs>
<clipPath id="clip0_1307_8075">
<rect width="32" height="32" fill="white" transform="translate(0.783203)"/>
</clipPath>
</defs>
</svg>
