<svg width="25" height="25" viewBox="0 0 25 25" fill="none" xmlns="http://www.w3.org/2000/svg">
<path d="M18.4834 0.58252H5.7334C2.6268 0.58252 0.108398 3.10092 0.108398 6.20752V18.9575C0.108398 22.0641 2.6268 24.5825 5.7334 24.5825H18.4834C21.59 24.5825 24.1084 22.0641 24.1084 18.9575V6.20752C24.1084 3.10092 21.59 0.58252 18.4834 0.58252Z" fill="white"/>
<path fill-rule="evenodd" clip-rule="evenodd" d="M7.88965 10.895C8.45215 8.64502 9.8584 7.52002 12.1084 7.52002C15.4834 7.52002 15.9053 10.0513 17.5928 10.4731C18.7178 10.7545 19.7021 10.3326 20.5459 9.20752C19.9834 11.4575 18.5771 12.5825 16.3271 12.5825C12.9521 12.5825 12.5303 10.0513 10.8428 9.62939C9.71777 9.34814 8.7334 9.77002 7.88965 10.895ZM3.6709 15.9575C4.2334 13.7075 5.63965 12.5825 7.88965 12.5825C11.2646 12.5825 11.6865 15.1138 13.374 15.5356C14.499 15.817 15.4834 15.3951 16.3271 14.27C15.7646 16.52 14.3584 17.645 12.1084 17.645C8.7334 17.645 8.31152 15.1138 6.62402 14.6919C5.49902 14.4105 4.51465 14.8324 3.6709 15.9575Z" fill="url(#paint0_linear_3886_10443)"/>
<defs>
<linearGradient id="paint0_linear_3886_10443" x1="8.21777" y1="7.52002" x2="15.4365" y2="17.9731" gradientUnits="userSpaceOnUse">
<stop stop-color="#32B1C1"/>
<stop offset="1" stop-color="#14C6B7"/>
</linearGradient>
</defs>
</svg>
