<svg width="44" height="44" viewBox="0 0 44 44" fill="none" xmlns="http://www.w3.org/2000/svg">
<g filter="url(#filter0_d_5327_9532)">
<rect x="2" y="1" width="40" height="40" rx="8" fill="#FF0073" fill-opacity="0.18"/>
<rect x="2.5" y="1.5" width="39" height="39" rx="7.5" stroke="#FF0073"/>
<path d="M18.2896 29.126C25.8368 29.126 29.9648 22.8732 29.9648 17.4508C29.9648 17.2732 29.9648 17.0964 29.9528 16.9204C30.7559 16.3396 31.4491 15.6203 32 14.7964C31.2512 15.1284 30.4567 15.3461 29.6432 15.442C30.4998 14.9293 31.141 14.1227 31.4472 13.1724C30.6417 13.6504 29.7605 13.9873 28.8416 14.1684C28.2229 13.5106 27.4047 13.075 26.5135 12.929C25.6223 12.783 24.7078 12.9349 23.9116 13.361C23.1154 13.7871 22.4819 14.4638 22.109 15.2862C21.7361 16.1087 21.6446 17.0312 21.8488 17.9108C20.2174 17.829 18.6215 17.405 17.1645 16.6664C15.7076 15.9279 14.4223 14.8912 13.392 13.6236C12.8673 14.527 12.7066 15.5963 12.9426 16.614C13.1786 17.6317 13.7936 18.5211 14.6624 19.1012C14.0094 19.0821 13.3705 18.9059 12.8 18.5876V18.6396C12.8003 19.587 13.1282 20.5051 13.7282 21.2383C14.3282 21.9714 15.1634 22.4744 16.092 22.662C15.4879 22.8268 14.8541 22.8509 14.2392 22.7324C14.5015 23.5477 15.012 24.2606 15.6994 24.7716C16.3867 25.2825 17.2165 25.5658 18.0728 25.582C17.222 26.2508 16.2478 26.7452 15.2057 27.037C14.1637 27.3289 13.0743 27.4124 12 27.2828C13.8765 28.487 16.0599 29.1258 18.2896 29.1228" fill="#FF0073"/>
</g>
<defs>
<filter id="filter0_d_5327_9532" x="0" y="0" width="44" height="44" filterUnits="userSpaceOnUse" color-interpolation-filters="sRGB">
<feFlood flood-opacity="0" result="BackgroundImageFix"/>
<feColorMatrix in="SourceAlpha" type="matrix" values="0 0 0 0 0 0 0 0 0 0 0 0 0 0 0 0 0 0 127 0" result="hardAlpha"/>
<feOffset dy="1"/>
<feGaussianBlur stdDeviation="1"/>
<feColorMatrix type="matrix" values="0 0 0 0 0.0627451 0 0 0 0 0.0941176 0 0 0 0 0.156863 0 0 0 0.05 0"/>
<feBlend mode="normal" in2="BackgroundImageFix" result="effect1_dropShadow_5327_9532"/>
<feBlend mode="normal" in="SourceGraphic" in2="effect1_dropShadow_5327_9532" result="shape"/>
</filter>
</defs>
</svg>
