<svg width="88" height="88" viewBox="0 0 88 88" fill="none" xmlns="http://www.w3.org/2000/svg">
<g filter="url(#filter0_i_1307_8211)">
<path d="M62.5846 2.09295L10.1186 13.2449C4.68559 14.3998 1.21742 19.7403 2.37225 25.1733L13.5242 77.6393C14.6791 83.0723 20.0196 86.5405 25.4526 85.3857L77.9186 74.2337C83.3516 73.0788 86.8198 67.7383 85.665 62.3053L74.513 9.83933C73.3581 4.4063 68.0176 0.938126 62.5846 2.09295Z" fill="url(#paint0_linear_1307_8211)"/>
<path d="M30.957 39.4954C31.1 36.6079 31.5277 34.8067 32.8092 33.5279C34.0879 32.2464 35.8892 31.8188 38.7767 31.6758M57.082 39.4954C56.939 36.6079 56.5114 34.8067 55.2299 33.5279C53.9512 32.2464 52.1499 31.8188 49.2624 31.6758M49.2624 57.8008C52.1499 57.6578 53.9512 57.2302 55.2299 55.9487C56.5114 54.6699 56.939 52.8687 57.082 49.9812M38.7767 57.8008C35.8892 57.6578 34.0879 57.2302 32.8092 55.9487C31.5277 54.6699 31.1 52.8687 30.957 49.9812M54.5177 43.8005C54.8518 44.2185 55.0195 44.4289 55.0195 44.7383C55.0195 45.0477 54.8518 45.258 54.5177 45.676C53.0148 47.557 49.1772 51.6133 44.0195 51.6133C38.8619 51.6133 35.0243 47.557 33.5214 45.676C33.1873 45.258 33.0195 45.0477 33.0195 44.7383C33.0195 44.4289 33.1873 44.2185 33.5214 43.8005C35.0243 41.9195 38.8619 37.8633 44.0195 37.8633C49.1772 37.8633 53.0148 41.9195 54.5177 43.8005Z" stroke="#88000C" stroke-width="1.5" stroke-linecap="round" stroke-linejoin="round"/>
<path d="M46.7695 44.7383C46.7695 44.0089 46.4798 43.3095 45.9641 42.7937C45.4483 42.278 44.7489 41.9883 44.0195 41.9883C43.2902 41.9883 42.5907 42.278 42.075 42.7937C41.5593 43.3095 41.2695 44.0089 41.2695 44.7383C41.2695 45.4676 41.5593 46.1671 42.075 46.6828C42.5907 47.1985 43.2902 47.4883 44.0195 47.4883C44.7489 47.4883 45.4483 47.1985 45.9641 46.6828C46.4798 46.1671 46.7695 45.4676 46.7695 44.7383Z" stroke="#88000C" stroke-width="1.5" stroke-linecap="round" stroke-linejoin="round"/>
</g>
<defs>
<filter id="filter0_i_1307_8211" x="2.15039" y="1.87109" width="91.2792" height="88.7649" filterUnits="userSpaceOnUse" color-interpolation-filters="sRGB">
<feFlood flood-opacity="0" result="BackgroundImageFix"/>
<feBlend mode="normal" in="SourceGraphic" in2="BackgroundImageFix" result="shape"/>
<feColorMatrix in="SourceAlpha" type="matrix" values="0 0 0 0 0 0 0 0 0 0 0 0 0 0 0 0 0 0 127 0" result="hardAlpha"/>
<feOffset dx="7.54286" dy="5.02857"/>
<feGaussianBlur stdDeviation="4.60952"/>
<feComposite in2="hardAlpha" operator="arithmetic" k2="-1" k3="1"/>
<feColorMatrix type="matrix" values="0 0 0 0 1 0 0 0 0 1 0 0 0 0 1 0 0 0 0.06 0"/>
<feBlend mode="normal" in2="shape" result="effect1_innerShadow_1307_8211"/>
</filter>
<linearGradient id="paint0_linear_1307_8211" x1="5.3095" y1="56.161" x2="82.5394" y2="30.7453" gradientUnits="userSpaceOnUse">
<stop stop-color="#FEB2C9"/>
<stop offset="0.41" stop-color="#FFCECC"/>
<stop offset="1" stop-color="#FF92D4"/>
</linearGradient>
</defs>
</svg>
