<svg width="25" height="25" viewBox="0 0 25 25" fill="none" xmlns="http://www.w3.org/2000/svg">
<path d="M19.0938 0.58252H6.34375C3.23715 0.58252 0.71875 3.10092 0.71875 6.20752V18.9575C0.71875 22.0641 3.23715 24.5825 6.34375 24.5825H19.0938C22.2004 24.5825 24.7188 22.0641 24.7188 18.9575V6.20752C24.7188 3.10092 22.2004 0.58252 19.0938 0.58252Z" fill="#242938"/>
<path d="M17.7812 5.27002H21.1562L12.7188 19.8247L4.28125 5.27002H10.7359L12.7188 8.64502L14.6594 5.27002H17.7812Z" fill="#41B883"/>
<path d="M4.28125 5.27002L12.7188 19.8247L21.1562 5.27002H17.7812L12.7188 14.0028L7.61406 5.27002H4.28125Z" fill="#41B883"/>
<path d="M7.61426 5.27002L12.7189 14.045L17.7814 5.27002H14.6596L12.7189 8.64502L10.7361 5.27002H7.61426Z" fill="white"/>
</svg>
