<svg width="25" height="25" viewBox="0 0 25 25" fill="none" xmlns="http://www.w3.org/2000/svg">
<path d="M18.4834 0.58252H5.7334C2.6268 0.58252 0.108398 3.10092 0.108398 6.20752V18.9575C0.108398 22.0641 2.6268 24.5825 5.7334 24.5825H18.4834C21.59 24.5825 24.1084 22.0641 24.1084 18.9575V6.20752C24.1084 3.10092 21.59 0.58252 18.4834 0.58252Z" fill="#4353FF"/>
<path d="M15.962 10.2796C15.962 10.2796 14.6668 14.3373 14.5711 14.6819C14.5329 14.3437 13.5886 7.05127 13.5886 7.05127C11.3811 7.05127 10.2071 8.62074 9.58184 10.2796C9.58184 10.2796 8.00599 14.3501 7.8784 14.6882C7.87202 14.3692 7.63596 10.3179 7.63596 10.3179C7.5019 8.28258 5.64527 7.05127 4.13965 7.05127L5.95165 18.0952C8.26118 18.0888 9.50534 16.5257 10.1561 14.8606C10.1561 14.8606 11.5406 11.2685 11.598 11.1091C11.6108 11.2621 12.5933 18.0952 12.5933 18.0952C14.9093 18.0952 16.1598 16.6342 16.8296 15.0328L20.0771 7.05127C17.7866 7.05127 16.5808 8.61436 15.962 10.2796Z" fill="white"/>
</svg>
