<svg width="44" height="46" viewBox="0 0 44 46" fill="none" xmlns="http://www.w3.org/2000/svg">
<g clip-path="url(#clip0_4795_10100)">
<path d="M0.938933 22.6374C0.937902 26.3631 1.9114 30.0011 3.7625 33.2076L0.761902 44.1632L11.9737 41.2235C15.0747 42.9116 18.5491 43.7962 22.0799 43.7964H22.0892C33.7449 43.7964 43.2329 34.3118 43.2379 22.6541C43.2401 17.0051 41.0422 11.6931 37.0488 7.69666C33.0562 3.70056 27.7461 1.49867 22.0883 1.49609C10.4312 1.49609 0.943918 10.9802 0.939105 22.6374" fill="url(#paint0_linear_4795_10100)"/>
<path d="M0.183906 22.6306C0.182703 26.4904 1.19109 30.2584 3.10819 33.5797L0 44.9281L11.6138 41.883C14.8137 43.6277 18.4166 44.5476 22.0827 44.5489H22.0921C34.166 44.5489 43.9948 34.7232 44 22.6481C44.0021 16.7961 41.7251 11.2932 37.5891 7.15358C33.4525 3.01449 27.9525 0.733363 22.0921 0.730957C10.0162 0.730957 0.188719 10.5553 0.183906 22.6306ZM7.10033 33.0077L6.66669 32.3194C4.84378 29.4209 3.88162 26.0714 3.883 22.632C3.88678 12.5953 12.055 4.42971 22.099 4.42971C26.9631 4.43177 31.5343 6.3279 34.9724 9.76815C38.4105 13.2087 40.3023 17.7823 40.3011 22.6467C40.2966 32.6834 32.1283 40.85 22.0921 40.85H22.0849C18.817 40.8483 15.6121 39.9707 12.8171 38.3123L12.1519 37.9178L5.26006 39.7248L7.10033 33.0077Z" fill="url(#paint1_linear_4795_10100)"/>
<path d="M16.6166 13.4752C16.2065 12.5637 15.7749 12.5453 15.3849 12.5293C15.0656 12.5156 14.7005 12.5166 14.3358 12.5166C13.9707 12.5166 13.3776 12.6539 12.8762 13.2014C12.3743 13.7493 10.9601 15.0734 10.9601 17.7665C10.9601 20.4597 12.9218 23.0625 13.1952 23.4281C13.469 23.793 16.9821 29.4965 22.5461 31.6907C27.1702 33.5141 28.1112 33.1514 29.1148 33.06C30.1185 32.9689 32.3536 31.7362 32.8096 30.458C33.2659 29.1799 33.2659 28.0844 33.1291 27.8554C32.9923 27.6274 32.6272 27.4904 32.0798 27.2167C31.5324 26.9431 28.841 25.6187 28.3393 25.4359C27.8374 25.2534 27.4725 25.1623 27.1075 25.7104C26.7424 26.2577 25.6941 27.4904 25.3746 27.8554C25.0554 28.2214 24.7359 28.2669 24.1887 27.9931C23.6409 27.7184 21.878 27.1411 19.7864 25.2764C18.1591 23.8255 17.0605 22.0337 16.7412 21.4856C16.4218 20.9383 16.707 20.6417 16.9814 20.3689C17.2274 20.1236 17.529 19.7297 17.803 19.4102C18.0759 19.0905 18.167 18.8624 18.3496 18.4974C18.5323 18.1319 18.4408 17.8123 18.3042 17.5385C18.167 17.2647 17.1033 14.5575 16.6166 13.4752Z" fill="white"/>
</g>
<defs>
<linearGradient id="paint0_linear_4795_10100" x1="2124.56" y1="4268.21" x2="2124.56" y2="1.49609" gradientUnits="userSpaceOnUse">
<stop stop-color="#1FAF38"/>
<stop offset="1" stop-color="#60D669"/>
</linearGradient>
<linearGradient id="paint1_linear_4795_10100" x1="2200" y1="4420.45" x2="2200" y2="0.730957" gradientUnits="userSpaceOnUse">
<stop stop-color="#F9F9F9"/>
<stop offset="1" stop-color="white"/>
</linearGradient>
<clipPath id="clip0_4795_10100">
<rect width="44" height="44.3438" fill="white" transform="translate(0 0.730957)"/>
</clipPath>
</defs>
</svg>
