<svg width="84" height="84" viewBox="0 0 84 84" fill="none" xmlns="http://www.w3.org/2000/svg">
<rect x="0.78125" y="0.140625" width="83" height="83" rx="23" fill="#FF0073" fill-opacity="0.19"/>
<path d="M54.2181 30.1833C52.6899 28.6402 50.8698 27.4166 48.8639 26.5839C46.8581 25.7513 44.7066 25.3261 42.5348 25.3333C33.4348 25.3333 26.0181 32.75 26.0181 41.85C26.0181 44.7667 26.7848 47.6 28.2181 50.1L25.8848 58.6667L34.6348 56.3667C37.0514 57.6833 39.7681 58.3833 42.5348 58.3833C51.6348 58.3833 59.0514 50.9667 59.0514 41.8667C59.0514 37.45 57.3348 33.3 54.2181 30.1833ZM42.5348 55.5833C40.0681 55.5833 37.6514 54.9167 35.5348 53.6667L35.0348 53.3667L29.8348 54.7333L31.2181 49.6667L30.8848 49.15C29.514 46.9618 28.7863 44.4321 28.7848 41.85C28.7848 34.2833 34.9514 28.1167 42.5181 28.1167C46.1848 28.1167 49.6348 29.55 52.2181 32.15C53.4975 33.4231 54.5113 34.9376 55.2008 36.6056C55.8903 38.2735 56.2418 40.0618 56.2348 41.8667C56.2681 49.4333 50.1014 55.5833 42.5348 55.5833ZM50.0681 45.3167C49.6514 45.1167 47.6181 44.1167 47.2514 43.9667C46.8681 43.8333 46.6014 43.7667 46.3181 44.1667C46.0348 44.5833 45.2514 45.5167 45.0181 45.7833C44.7848 46.0667 44.5348 46.1 44.1181 45.8833C43.7014 45.6833 42.3681 45.2333 40.8014 43.8333C39.5681 42.7333 38.7514 41.3833 38.5014 40.9667C38.2681 40.55 38.4681 40.3333 38.6848 40.1167C38.8681 39.9333 39.1014 39.6333 39.3014 39.4C39.5014 39.1667 39.5848 38.9833 39.7181 38.7167C39.8514 38.4333 39.7848 38.2 39.6848 38C39.5848 37.8 38.7514 35.7667 38.4181 34.9333C38.0848 34.1333 37.7348 34.2333 37.4848 34.2167H36.6848C36.4014 34.2167 35.9681 34.3167 35.5848 34.7333C35.2181 35.15 34.1514 36.15 34.1514 38.1833C34.1514 40.2167 35.6348 42.1833 35.8348 42.45C36.0348 42.7333 38.7514 46.9 42.8848 48.6833C43.8681 49.1167 44.6348 49.3667 45.2348 49.55C46.2181 49.8667 47.1181 49.8167 47.8348 49.7167C48.6348 49.6 50.2848 48.7167 50.6181 47.75C50.9681 46.7833 50.9681 45.9667 50.8514 45.7833C50.7348 45.6 50.4848 45.5167 50.0681 45.3167Z" fill="#FF0073"/>
</svg>
